<mxfile host="65bd71144e">
    <diagram id="T6w_XGLos5okEFDA4oso" name="Page-1">
        <mxGraphModel dx="7982" dy="3255" grid="0" gridSize="10" guides="1" tooltips="1" connect="1" arrows="1" fold="1" page="1" pageScale="1" pageWidth="1169" pageHeight="827" background="#FFFFFF" math="0" shadow="0">
            <root>
                <mxCell id="0"/>
                <mxCell id="1" parent="0"/>
                <mxCell id="281" style="edgeStyle=none;html=1;entryX=0.942;entryY=0.985;entryDx=0;entryDy=0;entryPerimeter=0;strokeColor=#660066;fontSize=10;fontColor=#660066;dashed=1;" edge="1" parent="1" source="41" target="2">
                    <mxGeometry relative="1" as="geometry"/>
                </mxCell>
                <mxCell id="41" value="" style="rounded=1;whiteSpace=wrap;html=1;fillColor=none;strokeColor=#330066;dashed=1;" vertex="1" parent="1">
                    <mxGeometry x="714" y="444" width="781" height="411" as="geometry"/>
                </mxCell>
                <mxCell id="43" value="" style="rounded=1;whiteSpace=wrap;html=1;dashed=1;strokeColor=#330066;fontColor=#004C99;fillColor=none;" vertex="1" parent="1">
                    <mxGeometry x="848" y="495" width="613" height="337" as="geometry"/>
                </mxCell>
                <mxCell id="78" value="" style="rounded=1;whiteSpace=wrap;html=1;labelBackgroundColor=none;fontSize=8;fontColor=#660066;fillColor=#660066;opacity=40;" vertex="1" parent="1">
                    <mxGeometry x="1004" y="612" width="304" height="128" as="geometry"/>
                </mxCell>
                <mxCell id="2" value="" style="rounded=1;whiteSpace=wrap;html=1;fillColor=none;strokeColor=#330066;dashed=1;" parent="1" vertex="1">
                    <mxGeometry x="467" y="62" width="310" height="322" as="geometry"/>
                </mxCell>
                <mxCell id="3" value="&lt;font color=&quot;#004c99&quot;&gt;&lt;b&gt;Supervisor Node&lt;/b&gt;&lt;/font&gt;" style="text;html=1;strokeColor=none;fillColor=none;align=center;verticalAlign=middle;whiteSpace=wrap;rounded=0;dashed=1;" parent="1" vertex="1">
                    <mxGeometry x="561" y="60" width="141" height="30" as="geometry"/>
                </mxCell>
                <mxCell id="4" value="" style="rounded=1;whiteSpace=wrap;html=1;dashed=1;strokeColor=#330066;fontColor=#004C99;fillColor=none;" parent="1" vertex="1">
                    <mxGeometry x="520" y="100" width="233" height="140" as="geometry"/>
                </mxCell>
                <mxCell id="5" value="&lt;font style=&quot;&quot; color=&quot;#004c99&quot;&gt;&lt;span style=&quot;font-size: 10px;&quot;&gt;&lt;b&gt;Agent&lt;/b&gt;&lt;br&gt;(&lt;/span&gt;&lt;/font&gt;&lt;font color=&quot;#004c99&quot;&gt;&lt;span style=&quot;font-size: 10px;&quot;&gt;create_openai_functions_agent)&lt;/span&gt;&lt;/font&gt;" style="text;html=1;strokeColor=none;fillColor=none;align=center;verticalAlign=middle;whiteSpace=wrap;rounded=0;dashed=1;" parent="1" vertex="1">
                    <mxGeometry x="545.5" y="106.12" width="141" height="30" as="geometry"/>
                </mxCell>
                <mxCell id="6" value="" style="endArrow=classic;html=1;fontColor=#004C99;fillColor=#d80073;strokeColor=#A50040;entryX=-0.01;entryY=0.129;entryDx=0;entryDy=0;entryPerimeter=0;" parent="1" target="2" edge="1">
                    <mxGeometry width="50" height="50" relative="1" as="geometry">
                        <mxPoint x="328" y="106" as="sourcePoint"/>
                        <mxPoint x="368" y="86" as="targetPoint"/>
                    </mxGeometry>
                </mxCell>
                <mxCell id="7" value="&lt;font style=&quot;&quot; color=&quot;#003366&quot;&gt;LLM&lt;/font&gt;" style="edgeLabel;html=1;align=center;verticalAlign=middle;resizable=0;points=[];fontColor=default;fontSize=12;rounded=0;dashed=1;labelBackgroundColor=none;" parent="6" vertex="1" connectable="0">
                    <mxGeometry x="-0.2737" y="1" relative="1" as="geometry">
                        <mxPoint x="6" y="-9" as="offset"/>
                    </mxGeometry>
                </mxCell>
                <mxCell id="8" value="" style="endArrow=classic;html=1;fontColor=#004C99;fillColor=#d80073;strokeColor=#A50040;entryX=0;entryY=0.25;entryDx=0;entryDy=0;" parent="1" edge="1" target="2">
                    <mxGeometry width="50" height="50" relative="1" as="geometry">
                        <mxPoint x="331" y="143" as="sourcePoint"/>
                        <mxPoint x="366" y="125" as="targetPoint"/>
                    </mxGeometry>
                </mxCell>
                <mxCell id="9" value="&lt;font style=&quot;&quot; color=&quot;#003366&quot;&gt;partial prompt&lt;/font&gt;" style="edgeLabel;html=1;align=center;verticalAlign=middle;resizable=0;points=[];fontColor=default;fontSize=12;rounded=0;dashed=1;labelBackgroundColor=none;" parent="8" vertex="1" connectable="0">
                    <mxGeometry x="-0.2737" y="1" relative="1" as="geometry">
                        <mxPoint x="6" y="-9" as="offset"/>
                    </mxGeometry>
                </mxCell>
                <mxCell id="10" value="" style="endArrow=classic;html=1;fontColor=#004C99;fillColor=#d80073;strokeColor=#A50040;entryX=0.002;entryY=0.415;entryDx=0;entryDy=0;entryPerimeter=0;" parent="1" edge="1" target="2">
                    <mxGeometry width="50" height="50" relative="1" as="geometry">
                        <mxPoint x="336" y="196" as="sourcePoint"/>
                        <mxPoint x="366" y="173" as="targetPoint"/>
                    </mxGeometry>
                </mxCell>
                <mxCell id="11" value="&lt;font style=&quot;&quot; color=&quot;#003366&quot;&gt;members&lt;br&gt;&lt;font style=&quot;font-size: 8px;&quot;&gt;search and research&lt;/font&gt;&lt;br&gt;&lt;/font&gt;" style="edgeLabel;html=1;align=center;verticalAlign=middle;resizable=0;points=[];fontColor=default;fontSize=12;rounded=0;dashed=1;labelBackgroundColor=none;" parent="10" vertex="1" connectable="0">
                    <mxGeometry x="-0.2737" y="1" relative="1" as="geometry">
                        <mxPoint x="22" y="-3" as="offset"/>
                    </mxGeometry>
                </mxCell>
                <mxCell id="280" style="edgeStyle=none;html=1;entryX=0.03;entryY=0.965;entryDx=0;entryDy=0;entryPerimeter=0;strokeColor=#660066;fontSize=10;fontColor=#660066;dashed=1;" edge="1" parent="1" source="12" target="2">
                    <mxGeometry relative="1" as="geometry"/>
                </mxCell>
                <mxCell id="12" value="" style="rounded=1;whiteSpace=wrap;html=1;fillColor=none;strokeColor=#330066;dashed=1;" parent="1" vertex="1">
                    <mxGeometry x="6" y="504" width="417" height="253" as="geometry"/>
                </mxCell>
                <mxCell id="13" value="&lt;font color=&quot;#004c99&quot;&gt;&lt;b&gt;Search Node&lt;/b&gt;&lt;br&gt;&lt;font style=&quot;font-size: 8px;&quot;&gt;(agent,state,name)&lt;/font&gt;&lt;br&gt;&lt;/font&gt;" style="text;html=1;strokeColor=none;fillColor=none;align=center;verticalAlign=middle;whiteSpace=wrap;rounded=0;dashed=1;" parent="1" vertex="1">
                    <mxGeometry x="165" y="508" width="141" height="30" as="geometry"/>
                </mxCell>
                <mxCell id="14" value="" style="rounded=1;whiteSpace=wrap;html=1;dashed=1;strokeColor=#330066;fontColor=#004C99;fillColor=none;" parent="1" vertex="1">
                    <mxGeometry x="140" y="544" width="247" height="162" as="geometry"/>
                </mxCell>
                <mxCell id="15" value="&lt;font style=&quot;&quot; color=&quot;#004c99&quot;&gt;&lt;span style=&quot;font-size: 11px;&quot;&gt;&lt;b&gt;Search Agent&lt;/b&gt;&lt;/span&gt;&lt;br&gt;&lt;span style=&quot;font-size: 8px;&quot;&gt;create_openai_functions_agent&lt;/span&gt;&lt;br&gt;&lt;/font&gt;" style="text;html=1;strokeColor=none;fillColor=none;align=center;verticalAlign=middle;whiteSpace=wrap;rounded=0;dashed=1;" parent="1" vertex="1">
                    <mxGeometry x="185" y="544" width="141" height="30" as="geometry"/>
                </mxCell>
                <mxCell id="16" value="" style="endArrow=classic;html=1;fontColor=#004C99;entryX=0;entryY=0.5;entryDx=0;entryDy=0;exitX=0.09;exitY=0.478;exitDx=0;exitDy=0;exitPerimeter=0;fillColor=#d80073;strokeColor=#A50040;" parent="1" source="12" target="14" edge="1">
                    <mxGeometry width="50" height="50" relative="1" as="geometry">
                        <mxPoint x="23" y="619" as="sourcePoint"/>
                        <mxPoint x="73" y="569" as="targetPoint"/>
                    </mxGeometry>
                </mxCell>
                <mxCell id="17" value="&lt;font style=&quot;&quot; color=&quot;#003366&quot;&gt;LLM&lt;/font&gt;" style="edgeLabel;html=1;align=center;verticalAlign=middle;resizable=0;points=[];fontColor=default;fontSize=12;rounded=0;dashed=1;labelBackgroundColor=none;" parent="16" vertex="1" connectable="0">
                    <mxGeometry x="-0.2737" y="1" relative="1" as="geometry">
                        <mxPoint x="6" y="-9" as="offset"/>
                    </mxGeometry>
                </mxCell>
                <mxCell id="18" value="" style="endArrow=classic;html=1;fontColor=#004C99;entryX=0;entryY=0.25;entryDx=0;entryDy=0;exitX=0.082;exitY=0.398;exitDx=0;exitDy=0;exitPerimeter=0;fillColor=#d80073;strokeColor=#A50040;" parent="1" edge="1">
                    <mxGeometry width="50" height="50" relative="1" as="geometry">
                        <mxPoint x="47.996000000000095" y="584.062" as="sourcePoint"/>
                        <mxPoint x="141.98000000000002" y="584" as="targetPoint"/>
                    </mxGeometry>
                </mxCell>
                <mxCell id="19" value="&lt;font style=&quot;&quot; color=&quot;#003366&quot;&gt;partial prompt&lt;/font&gt;" style="edgeLabel;html=1;align=center;verticalAlign=middle;resizable=0;points=[];fontColor=default;fontSize=12;rounded=0;dashed=1;labelBackgroundColor=none;" parent="18" vertex="1" connectable="0">
                    <mxGeometry x="-0.2737" y="1" relative="1" as="geometry">
                        <mxPoint x="6" y="-9" as="offset"/>
                    </mxGeometry>
                </mxCell>
                <mxCell id="20" value="" style="endArrow=classic;html=1;fontColor=#004C99;entryX=0;entryY=0.75;entryDx=0;entryDy=0;exitX=0.082;exitY=0.638;exitDx=0;exitDy=0;exitPerimeter=0;fillColor=#d80073;strokeColor=#A50040;" parent="1" edge="1" target="14" source="12">
                    <mxGeometry width="50" height="50" relative="1" as="geometry">
                        <mxPoint x="46.016000000000076" y="605.062" as="sourcePoint"/>
                        <mxPoint x="140" y="605" as="targetPoint"/>
                    </mxGeometry>
                </mxCell>
                <mxCell id="21" value="&lt;font style=&quot;&quot; color=&quot;#003366&quot;&gt;members&lt;/font&gt;" style="edgeLabel;html=1;align=center;verticalAlign=middle;resizable=0;points=[];fontColor=default;fontSize=12;rounded=0;dashed=1;labelBackgroundColor=none;" parent="20" vertex="1" connectable="0">
                    <mxGeometry x="-0.2737" y="1" relative="1" as="geometry">
                        <mxPoint x="6" y="-9" as="offset"/>
                    </mxGeometry>
                </mxCell>
                <mxCell id="22" value="" style="endArrow=classic;html=1;fontColor=#004C99;entryX=0.5;entryY=0;entryDx=0;entryDy=0;exitX=0.5;exitY=1;exitDx=0;exitDy=0;fillColor=#d80073;strokeColor=#A50040;" parent="1" source="4" target="24" edge="1">
                    <mxGeometry width="50" height="50" relative="1" as="geometry">
                        <mxPoint x="820.0039999999999" y="130.062" as="sourcePoint"/>
                        <mxPoint x="901.77" y="130" as="targetPoint"/>
                    </mxGeometry>
                </mxCell>
                <mxCell id="23" value="&lt;font style=&quot;font-size: 8px;&quot; color=&quot;#003366&quot;&gt;AIMessage&lt;br&gt;Finish,search,retrieve)&lt;br&gt;&lt;/font&gt;" style="edgeLabel;html=1;align=center;verticalAlign=middle;resizable=0;points=[];fontColor=default;fontSize=12;rounded=0;dashed=1;labelBackgroundColor=none;" parent="22" vertex="1" connectable="0">
                    <mxGeometry x="-0.2737" y="1" relative="1" as="geometry">
                        <mxPoint x="61" y="6" as="offset"/>
                    </mxGeometry>
                </mxCell>
                <mxCell id="38" style="edgeStyle=none;html=1;entryX=1;entryY=0.5;entryDx=0;entryDy=0;fontSize=8;strokeColor=#006600;exitX=0.5;exitY=1;exitDx=0;exitDy=0;" edge="1" parent="1" source="24" target="12">
                    <mxGeometry relative="1" as="geometry">
                        <Array as="points">
                            <mxPoint x="634" y="631"/>
                        </Array>
                    </mxGeometry>
                </mxCell>
                <mxCell id="90" style="edgeStyle=none;html=1;entryX=0.5;entryY=0;entryDx=0;entryDy=0;strokeColor=#006600;fontSize=8;fontColor=#660066;" edge="1" parent="1" source="24" target="41">
                    <mxGeometry relative="1" as="geometry">
                        <Array as="points">
                            <mxPoint x="1105" y="320"/>
                        </Array>
                    </mxGeometry>
                </mxCell>
                <mxCell id="92" style="edgeStyle=none;html=1;entryX=1;entryY=0.5;entryDx=0;entryDy=0;strokeColor=#006600;fontSize=8;fontColor=#660066;" edge="1" parent="1" source="24" target="91">
                    <mxGeometry relative="1" as="geometry"/>
                </mxCell>
                <mxCell id="24" value="Conditioanl Edge" style="rhombus;whiteSpace=wrap;html=1;dashed=1;labelBackgroundColor=none;strokeColor=#330066;fontSize=8;fontColor=#003366;fillColor=none;" parent="1" vertex="1">
                    <mxGeometry x="573" y="272" width="127" height="104" as="geometry"/>
                </mxCell>
                <mxCell id="42" value="&lt;font color=&quot;#004c99&quot;&gt;&lt;b&gt;Research Node (Dynamically Get the arxiv Paper) - PaperInformationRetriever&lt;/b&gt;&lt;br&gt;&lt;font style=&quot;font-size: 8px;&quot;&gt;(agent,state,name)&lt;/font&gt;&lt;br&gt;&lt;/font&gt;" style="text;html=1;strokeColor=none;fillColor=none;align=center;verticalAlign=middle;whiteSpace=wrap;rounded=0;dashed=1;" vertex="1" parent="1">
                    <mxGeometry x="929" y="454" width="399" height="30" as="geometry"/>
                </mxCell>
                <mxCell id="44" value="&lt;font style=&quot;&quot; color=&quot;#004c99&quot;&gt;&lt;span style=&quot;font-size: 11px;&quot;&gt;&lt;b&gt;Research Agent&lt;/b&gt;&lt;/span&gt;&lt;br&gt;&lt;span style=&quot;font-size: 8px;&quot;&gt;create_openai_functions_agent&lt;/span&gt;&lt;br&gt;&lt;/font&gt;" style="text;html=1;strokeColor=none;fillColor=none;align=center;verticalAlign=middle;whiteSpace=wrap;rounded=0;dashed=1;" vertex="1" parent="1">
                    <mxGeometry x="1223" y="504" width="141" height="30" as="geometry"/>
                </mxCell>
                <mxCell id="45" value="" style="endArrow=classic;html=1;fontColor=#004C99;entryX=0;entryY=0.5;entryDx=0;entryDy=0;exitX=0.037;exitY=0.502;exitDx=0;exitDy=0;exitPerimeter=0;fillColor=#d80073;strokeColor=#A50040;" edge="1" parent="1" source="41" target="43">
                    <mxGeometry width="50" height="50" relative="1" as="geometry">
                        <mxPoint x="731" y="564" as="sourcePoint"/>
                        <mxPoint x="781" y="514" as="targetPoint"/>
                    </mxGeometry>
                </mxCell>
                <mxCell id="46" value="&lt;font style=&quot;&quot; color=&quot;#003366&quot;&gt;LLM&lt;/font&gt;" style="edgeLabel;html=1;align=center;verticalAlign=middle;resizable=0;points=[];fontColor=default;fontSize=12;rounded=0;dashed=1;labelBackgroundColor=none;" vertex="1" connectable="0" parent="45">
                    <mxGeometry x="-0.2737" y="1" relative="1" as="geometry">
                        <mxPoint x="6" y="-9" as="offset"/>
                    </mxGeometry>
                </mxCell>
                <mxCell id="47" value="" style="endArrow=classic;html=1;fontColor=#004C99;entryX=0;entryY=0.25;entryDx=0;entryDy=0;exitX=0.038;exitY=0.311;exitDx=0;exitDy=0;exitPerimeter=0;fillColor=#d80073;strokeColor=#A50040;" edge="1" parent="1" source="41" target="43">
                    <mxGeometry width="50" height="50" relative="1" as="geometry">
                        <mxPoint x="755.9960000000001" y="529.0619999999999" as="sourcePoint"/>
                        <mxPoint x="849.98" y="529" as="targetPoint"/>
                    </mxGeometry>
                </mxCell>
                <mxCell id="48" value="&lt;font style=&quot;&quot; color=&quot;#003366&quot;&gt;partial prompt&lt;/font&gt;" style="edgeLabel;html=1;align=center;verticalAlign=middle;resizable=0;points=[];fontColor=default;fontSize=12;rounded=0;dashed=1;labelBackgroundColor=none;" vertex="1" connectable="0" parent="47">
                    <mxGeometry x="-0.2737" y="1" relative="1" as="geometry">
                        <mxPoint x="6" y="-9" as="offset"/>
                    </mxGeometry>
                </mxCell>
                <mxCell id="49" value="" style="endArrow=classic;html=1;fontColor=#004C99;entryX=0;entryY=0.75;entryDx=0;entryDy=0;fillColor=#d80073;strokeColor=#A50040;exitX=0.025;exitY=0.696;exitDx=0;exitDy=0;exitPerimeter=0;" edge="1" parent="1" source="41" target="43">
                    <mxGeometry width="50" height="50" relative="1" as="geometry">
                        <mxPoint x="764" y="832" as="sourcePoint"/>
                        <mxPoint x="848" y="550" as="targetPoint"/>
                    </mxGeometry>
                </mxCell>
                <mxCell id="50" value="&lt;font style=&quot;&quot; color=&quot;#003366&quot;&gt;tools&lt;/font&gt;" style="edgeLabel;html=1;align=center;verticalAlign=middle;resizable=0;points=[];fontColor=default;fontSize=12;rounded=0;dashed=1;labelBackgroundColor=none;" vertex="1" connectable="0" parent="49">
                    <mxGeometry x="-0.2737" y="1" relative="1" as="geometry">
                        <mxPoint x="6" y="-9" as="offset"/>
                    </mxGeometry>
                </mxCell>
                <mxCell id="79" style="edgeStyle=none;html=1;exitX=0;exitY=0;exitDx=60;exitDy=118;exitPerimeter=0;entryX=0;entryY=0.5;entryDx=0;entryDy=0;strokeColor=#006600;fontSize=8;fontColor=#660066;" edge="1" parent="1" source="55" target="78">
                    <mxGeometry relative="1" as="geometry">
                        <Array as="points">
                            <mxPoint x="978" y="680"/>
                        </Array>
                    </mxGeometry>
                </mxCell>
                <mxCell id="55" value="" style="verticalLabelPosition=bottom;verticalAlign=top;html=1;shape=mxgraph.infographic.cylinder;fillColor=#10739E;strokeColor=none;fontSize=8;rotation=90;" vertex="1" parent="1">
                    <mxGeometry x="948" y="452" width="60" height="236" as="geometry"/>
                </mxCell>
                <mxCell id="56" value="" style="shape=cylinder3;whiteSpace=wrap;html=1;boundedLbl=1;backgroundOutline=1;size=10.352005004882812;lid=0;fontSize=8;rotation=90;fillColor=#660066;opacity=40;" vertex="1" parent="1">
                    <mxGeometry x="869" y="530" width="60" height="80" as="geometry"/>
                </mxCell>
                <mxCell id="57" value="&lt;span style=&quot;font-size: 6px;&quot;&gt;&lt;font color=&quot;#ffffff&quot;&gt;Prompt&lt;/font&gt;&lt;/span&gt;" style="text;html=1;align=center;verticalAlign=middle;resizable=0;points=[];autosize=1;strokeColor=none;fillColor=none;fontSize=8;fontColor=default;" vertex="1" parent="1">
                    <mxGeometry x="880.5" y="562.5" width="37" height="22" as="geometry"/>
                </mxCell>
                <mxCell id="58" value="" style="shape=cylinder3;whiteSpace=wrap;html=1;boundedLbl=1;backgroundOutline=1;size=10.352005004882812;lid=0;fontSize=8;rotation=90;fillColor=#660066;opacity=40;" vertex="1" parent="1">
                    <mxGeometry x="979" y="494" width="60" height="152" as="geometry"/>
                </mxCell>
                <mxCell id="59" value="&lt;font color=&quot;#ffffff&quot;&gt;&lt;span style=&quot;font-size: 6px;&quot;&gt;LLM&lt;/span&gt;&lt;br style=&quot;font-size: 6px;&quot;&gt;&lt;span style=&quot;font-size: 6px;&quot;&gt;FunctionCalling&lt;/span&gt;&lt;br style=&quot;font-size: 6px;&quot;&gt;&lt;span style=&quot;font-size: 6px;&quot;&gt;custom tool retrieve_information&lt;/span&gt;&lt;/font&gt;" style="text;html=1;align=center;verticalAlign=middle;resizable=0;points=[];autosize=1;strokeColor=none;fillColor=none;fontSize=8;fontColor=default;" vertex="1" parent="1">
                    <mxGeometry x="953.5" y="550" width="103" height="41" as="geometry"/>
                </mxCell>
                <mxCell id="61" value="&lt;span style=&quot;font-size: 6px;&quot;&gt;&lt;font color=&quot;#ffffff&quot;&gt;Prompt&lt;/font&gt;&lt;/span&gt;" style="text;html=1;align=center;verticalAlign=middle;resizable=0;points=[];autosize=1;strokeColor=none;fillColor=none;fontSize=8;fontColor=default;" vertex="1" parent="1">
                    <mxGeometry x="198" y="627.5" width="37" height="22" as="geometry"/>
                </mxCell>
                <mxCell id="62" value="&lt;font color=&quot;#ffffff&quot;&gt;&lt;span style=&quot;font-size: 6px;&quot;&gt;LLM&lt;/span&gt;&lt;br style=&quot;font-size: 6px;&quot;&gt;&lt;span style=&quot;font-size: 6px;&quot;&gt;FunctionCalling&lt;/span&gt;&lt;br style=&quot;font-size: 6px;&quot;&gt;&lt;span style=&quot;font-size: 6px;&quot;&gt;custom tool retrieve _nformation&lt;/span&gt;&lt;/font&gt;" style="text;html=1;align=center;verticalAlign=middle;resizable=0;points=[];autosize=1;strokeColor=none;fillColor=none;fontSize=8;fontColor=default;" vertex="1" parent="1">
                    <mxGeometry x="270" y="615" width="104" height="41" as="geometry"/>
                </mxCell>
                <mxCell id="63" value="" style="verticalLabelPosition=bottom;verticalAlign=top;html=1;shape=mxgraph.infographic.cylinder;fillColor=#10739E;strokeColor=none;fontSize=8;rotation=90;" vertex="1" parent="1">
                    <mxGeometry x="211.25" y="526.75" width="60" height="176.5" as="geometry"/>
                </mxCell>
                <mxCell id="64" value="" style="shape=cylinder3;whiteSpace=wrap;html=1;boundedLbl=1;backgroundOutline=1;size=10.352005004882812;lid=0;fontSize=8;rotation=90;fillColor=#660066;opacity=40;" vertex="1" parent="1">
                    <mxGeometry x="162" y="575" width="60" height="80" as="geometry"/>
                </mxCell>
                <mxCell id="65" value="&lt;span style=&quot;font-size: 6px;&quot;&gt;&lt;font color=&quot;#ffffff&quot;&gt;Prompt&lt;/font&gt;&lt;/span&gt;" style="text;html=1;align=center;verticalAlign=middle;resizable=0;points=[];autosize=1;strokeColor=none;fillColor=none;fontSize=8;fontColor=default;" vertex="1" parent="1">
                    <mxGeometry x="173.5" y="607.5" width="37" height="22" as="geometry"/>
                </mxCell>
                <mxCell id="275" style="edgeStyle=none;html=1;entryX=0;entryY=0.5;entryDx=0;entryDy=0;strokeColor=#006600;fontSize=8;fontColor=#660066;" edge="1" parent="1" source="66" target="87">
                    <mxGeometry relative="1" as="geometry">
                        <Array as="points">
                            <mxPoint x="274" y="678"/>
                        </Array>
                    </mxGeometry>
                </mxCell>
                <mxCell id="66" value="" style="shape=cylinder3;whiteSpace=wrap;html=1;boundedLbl=1;backgroundOutline=1;size=10.352005004882812;lid=0;fontSize=8;rotation=90;fillColor=#660066;opacity=40;" vertex="1" parent="1">
                    <mxGeometry x="241.5" y="569.5" width="60" height="91" as="geometry"/>
                </mxCell>
                <mxCell id="67" value="&lt;font color=&quot;#ffffff&quot;&gt;&lt;span style=&quot;font-size: 6px;&quot;&gt;LLM&lt;br&gt;&lt;/span&gt;Tool Calling&lt;br&gt;&lt;/font&gt;" style="text;html=1;align=center;verticalAlign=middle;resizable=0;points=[];autosize=1;strokeColor=none;fillColor=none;fontSize=8;fontColor=default;" vertex="1" parent="1">
                    <mxGeometry x="230.25" y="599.25" width="59" height="31" as="geometry"/>
                </mxCell>
                <mxCell id="71" value="" style="verticalLabelPosition=bottom;verticalAlign=top;html=1;shape=mxgraph.infographic.cylinder;fillColor=#10739E;strokeColor=none;fontSize=8;rotation=90;" vertex="1" parent="1">
                    <mxGeometry x="1130.75" y="540.75" width="60" height="281.5" as="geometry"/>
                </mxCell>
                <mxCell id="72" value="" style="shape=cylinder3;whiteSpace=wrap;html=1;boundedLbl=1;backgroundOutline=1;size=10.352005004882812;lid=0;fontSize=8;rotation=90;fillColor=#660066;opacity=40;" vertex="1" parent="1">
                    <mxGeometry x="1018.75" y="651.75" width="60" height="59.5" as="geometry"/>
                </mxCell>
                <mxCell id="73" value="&lt;span style=&quot;font-size: 6px;&quot;&gt;&lt;font color=&quot;#ffffff&quot;&gt;Title Prompt&lt;/font&gt;&lt;/span&gt;" style="text;html=1;align=center;verticalAlign=middle;resizable=0;points=[];autosize=1;strokeColor=none;fillColor=none;fontSize=8;fontColor=default;" vertex="1" parent="1">
                    <mxGeometry x="1020" y="673" width="50" height="22" as="geometry"/>
                </mxCell>
                <mxCell id="74" value="" style="shape=cylinder3;whiteSpace=wrap;html=1;boundedLbl=1;backgroundOutline=1;size=10.352005004882812;lid=0;fontSize=8;rotation=90;fillColor=#660066;opacity=40;" vertex="1" parent="1">
                    <mxGeometry x="1098.75" y="623.75" width="60" height="115.5" as="geometry"/>
                </mxCell>
                <mxCell id="75" value="&lt;font color=&quot;#ffffff&quot;&gt;&lt;span style=&quot;font-size: 6px;&quot;&gt;LLM&lt;/span&gt;&lt;br style=&quot;font-size: 6px;&quot;&gt;&lt;span style=&quot;font-size: 6px;&quot;&gt;FunctionCalling&lt;/span&gt;&lt;br style=&quot;font-size: 6px;&quot;&gt;&lt;span style=&quot;font-size: 6px;&quot;&gt;custom tool get_arxiv_paper&lt;/span&gt;&lt;/font&gt;" style="text;html=1;align=center;verticalAlign=middle;resizable=0;points=[];autosize=1;strokeColor=none;fillColor=none;fontSize=8;fontColor=default;" vertex="1" parent="1">
                    <mxGeometry x="1079" y="659" width="93" height="41" as="geometry"/>
                </mxCell>
                <mxCell id="80" value="&lt;font color=&quot;#004c99&quot;&gt;&lt;b&gt;&lt;font style=&quot;font-size: 10px;&quot;&gt;&quot;retrieve_information&quot; tool&lt;/font&gt;&lt;/b&gt;&lt;br&gt;&lt;/font&gt;" style="text;html=1;strokeColor=none;fillColor=none;align=center;verticalAlign=middle;whiteSpace=wrap;rounded=0;dashed=1;" vertex="1" parent="1">
                    <mxGeometry x="1086" y="612" width="141" height="30" as="geometry"/>
                </mxCell>
                <mxCell id="86" style="edgeStyle=none;html=1;entryX=0;entryY=0.5;entryDx=0;entryDy=0;strokeColor=#006600;fontSize=8;fontColor=#660066;" edge="1" parent="1" source="81" target="83">
                    <mxGeometry relative="1" as="geometry">
                        <Array as="points">
                            <mxPoint x="1218" y="792"/>
                        </Array>
                    </mxGeometry>
                </mxCell>
                <mxCell id="81" value="" style="shape=cylinder3;whiteSpace=wrap;html=1;boundedLbl=1;backgroundOutline=1;size=10.352005004882812;lid=0;fontSize=8;rotation=90;fillColor=#660066;opacity=40;" vertex="1" parent="1">
                    <mxGeometry x="1187.88" y="643.88" width="60" height="75.25" as="geometry"/>
                </mxCell>
                <mxCell id="82" value="&lt;font color=&quot;#ffffff&quot;&gt;&lt;span style=&quot;font-size: 6px;&quot;&gt;Call_tool&amp;nbsp;&lt;br&gt;&lt;/span&gt;&lt;/font&gt;function" style="text;html=1;align=center;verticalAlign=middle;resizable=0;points=[];autosize=1;strokeColor=none;fillColor=none;fontSize=8;fontColor=default;" vertex="1" parent="1">
                    <mxGeometry x="1187.88" y="666" width="46" height="31" as="geometry"/>
                </mxCell>
                <mxCell id="83" value="" style="rounded=1;whiteSpace=wrap;html=1;labelBackgroundColor=none;fontSize=8;fontColor=#660066;fillColor=#660066;opacity=40;" vertex="1" parent="1">
                    <mxGeometry x="1251" y="765" width="185" height="53" as="geometry"/>
                </mxCell>
                <mxCell id="84" value="&lt;font color=&quot;#004c99&quot;&gt;&lt;b&gt;&quot;get_arxiv_paper&quot; tool&lt;/b&gt;&lt;br&gt;&lt;/font&gt;" style="text;html=1;strokeColor=none;fillColor=none;align=center;verticalAlign=middle;whiteSpace=wrap;rounded=0;dashed=1;" vertex="1" parent="1">
                    <mxGeometry x="1276" y="763" width="141" height="30" as="geometry"/>
                </mxCell>
                <mxCell id="85" value="ArxivAPIWrapper &amp;amp; ArxicLoder" style="text;html=1;align=center;verticalAlign=middle;resizable=0;points=[];autosize=1;strokeColor=none;fillColor=none;fontSize=8;fontColor=#660066;" vertex="1" parent="1">
                    <mxGeometry x="1283" y="789" width="127" height="22" as="geometry"/>
                </mxCell>
                <mxCell id="87" value="&lt;b style=&quot;color: rgb(0, 76, 153);&quot;&gt;&lt;font style=&quot;font-size: 8px;&quot;&gt;&quot;tavily&quot; tool&lt;/font&gt;&lt;/b&gt;" style="rounded=1;whiteSpace=wrap;html=1;labelBackgroundColor=none;fontSize=8;fontColor=#660066;fillColor=#660066;opacity=40;" vertex="1" parent="1">
                    <mxGeometry x="294.75" y="659.38" width="70" height="37" as="geometry"/>
                </mxCell>
                <mxCell id="274" style="edgeStyle=none;html=1;entryX=0.925;entryY=0.987;entryDx=0;entryDy=0;entryPerimeter=0;strokeColor=#006600;fontSize=8;fontColor=#660066;dashed=1;" edge="1" parent="1" source="91" target="249">
                    <mxGeometry relative="1" as="geometry"/>
                </mxCell>
                <mxCell id="91" value="Finish" style="rounded=0;whiteSpace=wrap;html=1;labelBackgroundColor=none;fontSize=8;fontColor=#660066;fillColor=#660066;opacity=40;" vertex="1" parent="1">
                    <mxGeometry x="294.75" y="290" width="120" height="60" as="geometry"/>
                </mxCell>
                <mxCell id="277" style="edgeStyle=none;html=1;entryX=0.049;entryY=0.99;entryDx=0;entryDy=0;entryPerimeter=0;strokeColor=#660066;fontSize=10;fontColor=#660066;dashed=1;" edge="1" parent="1" source="93" target="186">
                    <mxGeometry relative="1" as="geometry"/>
                </mxCell>
                <mxCell id="93" value="" style="rounded=1;whiteSpace=wrap;html=1;fillColor=none;strokeColor=#330066;dashed=1;" vertex="1" parent="1">
                    <mxGeometry x="-1512" y="527" width="408" height="253" as="geometry"/>
                </mxCell>
                <mxCell id="94" value="&lt;font color=&quot;#004c99&quot;&gt;&lt;b&gt;DocWriter Node&lt;/b&gt;&lt;br&gt;&lt;/font&gt;" style="text;html=1;strokeColor=none;fillColor=none;align=center;verticalAlign=middle;whiteSpace=wrap;rounded=0;dashed=1;" vertex="1" parent="1">
                    <mxGeometry x="-1344" y="527" width="141" height="30" as="geometry"/>
                </mxCell>
                <mxCell id="95" value="" style="rounded=1;whiteSpace=wrap;html=1;dashed=1;strokeColor=#330066;fontColor=#004C99;fillColor=none;" vertex="1" parent="1">
                    <mxGeometry x="-1400" y="567" width="283" height="204.5" as="geometry"/>
                </mxCell>
                <mxCell id="96" value="&lt;font style=&quot;&quot; color=&quot;#004c99&quot;&gt;&lt;span style=&quot;font-size: 11px;&quot;&gt;&lt;b&gt;DocWriter Agent&lt;/b&gt;&lt;/span&gt;&lt;br&gt;&lt;span style=&quot;font-size: 8px;&quot;&gt;create_openai_functions_agent&lt;/span&gt;&lt;br&gt;&lt;/font&gt;" style="text;html=1;strokeColor=none;fillColor=none;align=center;verticalAlign=middle;whiteSpace=wrap;rounded=0;dashed=1;" vertex="1" parent="1">
                    <mxGeometry x="-1322" y="567" width="141" height="30" as="geometry"/>
                </mxCell>
                <mxCell id="97" value="" style="endArrow=classic;html=1;fontColor=#004C99;entryX=0;entryY=0.5;entryDx=0;entryDy=0;exitX=0.09;exitY=0.562;exitDx=0;exitDy=0;exitPerimeter=0;fillColor=#d80073;strokeColor=#A50040;" edge="1" parent="1" source="93" target="95">
                    <mxGeometry width="50" height="50" relative="1" as="geometry">
                        <mxPoint x="-1517" y="642" as="sourcePoint"/>
                        <mxPoint x="-1467" y="592" as="targetPoint"/>
                    </mxGeometry>
                </mxCell>
                <mxCell id="98" value="&lt;font style=&quot;font-size: 10px;&quot; color=&quot;#003366&quot;&gt;LLM&lt;/font&gt;" style="edgeLabel;html=1;align=center;verticalAlign=middle;resizable=0;points=[];fontColor=default;fontSize=12;rounded=0;dashed=1;labelBackgroundColor=none;" vertex="1" connectable="0" parent="97">
                    <mxGeometry x="-0.2737" y="1" relative="1" as="geometry">
                        <mxPoint x="6" y="-9" as="offset"/>
                    </mxGeometry>
                </mxCell>
                <mxCell id="99" value="" style="endArrow=classic;html=1;fontColor=#004C99;entryX=0;entryY=0.25;entryDx=0;entryDy=0;exitX=0.082;exitY=0.398;exitDx=0;exitDy=0;exitPerimeter=0;fillColor=#d80073;strokeColor=#A50040;" edge="1" parent="1">
                    <mxGeometry width="50" height="50" relative="1" as="geometry">
                        <mxPoint x="-1492.004" y="607.0619999999999" as="sourcePoint"/>
                        <mxPoint x="-1398.0199999999998" y="607" as="targetPoint"/>
                    </mxGeometry>
                </mxCell>
                <mxCell id="100" value="&lt;font style=&quot;font-size: 10px;&quot; color=&quot;#003366&quot;&gt;partial prompt&lt;/font&gt;" style="edgeLabel;html=1;align=center;verticalAlign=middle;resizable=0;points=[];fontColor=default;fontSize=12;rounded=0;dashed=1;labelBackgroundColor=none;" vertex="1" connectable="0" parent="99">
                    <mxGeometry x="-0.2737" y="1" relative="1" as="geometry">
                        <mxPoint x="6" y="-9" as="offset"/>
                    </mxGeometry>
                </mxCell>
                <mxCell id="103" value="&lt;span style=&quot;font-size: 6px;&quot;&gt;&lt;font color=&quot;#ffffff&quot;&gt;Prompt&lt;/font&gt;&lt;/span&gt;" style="text;html=1;align=center;verticalAlign=middle;resizable=0;points=[];autosize=1;strokeColor=none;fillColor=none;fontSize=8;fontColor=default;" vertex="1" parent="1">
                    <mxGeometry x="-1342" y="650.5" width="37" height="22" as="geometry"/>
                </mxCell>
                <mxCell id="106" value="" style="verticalLabelPosition=bottom;verticalAlign=top;html=1;shape=mxgraph.infographic.cylinder;fillColor=#10739E;strokeColor=none;fontSize=8;rotation=90;" vertex="1" parent="1">
                    <mxGeometry x="-1278" y="521.75" width="60" height="232.5" as="geometry"/>
                </mxCell>
                <mxCell id="107" value="" style="shape=cylinder3;whiteSpace=wrap;html=1;boundedLbl=1;backgroundOutline=1;size=10.352005004882812;lid=0;fontSize=8;rotation=90;fillColor=#660066;opacity=40;" vertex="1" parent="1">
                    <mxGeometry x="-1281.5" y="598.25" width="60" height="80" as="geometry"/>
                </mxCell>
                <mxCell id="108" value="&lt;span style=&quot;&quot;&gt;&lt;font style=&quot;font-size: 8px;&quot; color=&quot;#ffffff&quot;&gt;Prompt&lt;br&gt;{current_files}&lt;br&gt;&lt;/font&gt;&lt;/span&gt;" style="text;html=1;align=center;verticalAlign=middle;resizable=0;points=[];autosize=1;strokeColor=none;fillColor=none;fontSize=8;fontColor=default;" vertex="1" parent="1">
                    <mxGeometry x="-1290.75" y="622.5" width="67" height="31" as="geometry"/>
                </mxCell>
                <mxCell id="213" style="edgeStyle=none;html=1;entryX=0.5;entryY=0;entryDx=0;entryDy=0;strokeColor=#006600;fontSize=10;fontColor=#660066;exitX=0;exitY=0;exitDx=60;exitDy=63.125;exitPerimeter=0;" edge="1" parent="1" source="106" target="111">
                    <mxGeometry relative="1" as="geometry">
                        <Array as="points">
                            <mxPoint x="-1195" y="692"/>
                            <mxPoint x="-1347" y="694"/>
                        </Array>
                    </mxGeometry>
                </mxCell>
                <mxCell id="214" style="edgeStyle=none;html=1;entryX=0.5;entryY=0;entryDx=0;entryDy=0;strokeColor=#006600;fontSize=10;fontColor=#660066;exitX=0;exitY=0;exitDx=60;exitDy=63.125;exitPerimeter=0;" edge="1" parent="1" source="106" target="114">
                    <mxGeometry relative="1" as="geometry">
                        <mxPoint x="-1215" y="676" as="sourcePoint"/>
                        <Array as="points">
                            <mxPoint x="-1195" y="692"/>
                            <mxPoint x="-1255" y="692"/>
                        </Array>
                    </mxGeometry>
                </mxCell>
                <mxCell id="215" style="edgeStyle=none;html=1;entryX=0.5;entryY=0;entryDx=0;entryDy=0;strokeColor=#006600;fontSize=10;fontColor=#660066;exitX=1;exitY=0;exitDx=0;exitDy=52.948997497558594;exitPerimeter=0;" edge="1" parent="1" source="109" target="113">
                    <mxGeometry relative="1" as="geometry">
                        <Array as="points">
                            <mxPoint x="-1197" y="691"/>
                            <mxPoint x="-1169" y="691"/>
                        </Array>
                    </mxGeometry>
                </mxCell>
                <mxCell id="109" value="" style="shape=cylinder3;whiteSpace=wrap;html=1;boundedLbl=1;backgroundOutline=1;size=10.352005004882812;lid=0;fontSize=8;rotation=90;fillColor=#660066;opacity=40;" vertex="1" parent="1">
                    <mxGeometry x="-1209.5" y="599.25" width="60" height="77.5" as="geometry"/>
                </mxCell>
                <mxCell id="110" value="&lt;font style=&quot;font-size: 8px;&quot; color=&quot;#ffffff&quot;&gt;&lt;span style=&quot;&quot;&gt;LLM&lt;/span&gt;&lt;br style=&quot;&quot;&gt;&lt;span style=&quot;&quot;&gt;FunctionCalling&lt;br&gt;&lt;/span&gt;tools&lt;br&gt;&lt;/font&gt;" style="text;html=1;align=center;verticalAlign=middle;resizable=0;points=[];autosize=1;strokeColor=none;fillColor=none;fontSize=8;fontColor=default;" vertex="1" parent="1">
                    <mxGeometry x="-1218" y="616.25" width="73" height="41" as="geometry"/>
                </mxCell>
                <mxCell id="111" value="&lt;font size=&quot;1&quot; color=&quot;#004c99&quot;&gt;&lt;b style=&quot;font-size: 8px;&quot;&gt;write_document&lt;/b&gt;&lt;/font&gt;" style="rounded=1;whiteSpace=wrap;html=1;labelBackgroundColor=none;fontSize=8;fontColor=#660066;fillColor=#660066;opacity=40;" vertex="1" parent="1">
                    <mxGeometry x="-1389" y="718.25" width="84" height="37" as="geometry"/>
                </mxCell>
                <mxCell id="113" value="&lt;font size=&quot;1&quot; color=&quot;#004c99&quot;&gt;&lt;b style=&quot;font-size: 8px;&quot;&gt;read_document&lt;/b&gt;&lt;/font&gt;" style="rounded=1;whiteSpace=wrap;html=1;labelBackgroundColor=none;fontSize=8;fontColor=#660066;fillColor=#660066;opacity=40;" vertex="1" parent="1">
                    <mxGeometry x="-1214" y="717.25" width="86" height="37" as="geometry"/>
                </mxCell>
                <mxCell id="114" value="&lt;font size=&quot;1&quot; color=&quot;#004c99&quot;&gt;&lt;b style=&quot;font-size: 8px;&quot;&gt;edit_document&lt;/b&gt;&lt;/font&gt;" style="rounded=1;whiteSpace=wrap;html=1;labelBackgroundColor=none;fontSize=8;fontColor=#660066;fillColor=#660066;opacity=40;" vertex="1" parent="1">
                    <mxGeometry x="-1297" y="717.25" width="79" height="37" as="geometry"/>
                </mxCell>
                <mxCell id="278" style="edgeStyle=none;html=1;entryX=0.327;entryY=1.009;entryDx=0;entryDy=0;entryPerimeter=0;strokeColor=#660066;fontSize=10;fontColor=#660066;dashed=1;" edge="1" parent="1" source="120" target="186">
                    <mxGeometry relative="1" as="geometry"/>
                </mxCell>
                <mxCell id="120" value="" style="rounded=1;whiteSpace=wrap;html=1;fillColor=none;strokeColor=#330066;dashed=1;" vertex="1" parent="1">
                    <mxGeometry x="-1052" y="521.75" width="424" height="253" as="geometry"/>
                </mxCell>
                <mxCell id="121" value="&lt;font color=&quot;#004c99&quot;&gt;&lt;b&gt;NoteTaking Node&lt;/b&gt;&lt;br&gt;&lt;/font&gt;" style="text;html=1;strokeColor=none;fillColor=none;align=center;verticalAlign=middle;whiteSpace=wrap;rounded=0;dashed=1;" vertex="1" parent="1">
                    <mxGeometry x="-904" y="521.75" width="141" height="30" as="geometry"/>
                </mxCell>
                <mxCell id="122" value="" style="rounded=1;whiteSpace=wrap;html=1;dashed=1;strokeColor=#330066;fontColor=#004C99;fillColor=none;" vertex="1" parent="1">
                    <mxGeometry x="-960" y="561.75" width="321" height="204.5" as="geometry"/>
                </mxCell>
                <mxCell id="123" value="&lt;font style=&quot;&quot; color=&quot;#004c99&quot;&gt;&lt;span style=&quot;font-size: 11px;&quot;&gt;&lt;b&gt;NoteTaking Agent&lt;/b&gt;&lt;/span&gt;&lt;br&gt;&lt;span style=&quot;font-size: 8px;&quot;&gt;create_openai_functions_agent&lt;/span&gt;&lt;br&gt;&lt;/font&gt;" style="text;html=1;strokeColor=none;fillColor=none;align=center;verticalAlign=middle;whiteSpace=wrap;rounded=0;dashed=1;" vertex="1" parent="1">
                    <mxGeometry x="-882" y="561.75" width="141" height="30" as="geometry"/>
                </mxCell>
                <mxCell id="124" value="" style="endArrow=classic;html=1;fontColor=#004C99;entryX=0;entryY=0.5;entryDx=0;entryDy=0;fillColor=#d80073;strokeColor=#A50040;" edge="1" parent="1" target="122">
                    <mxGeometry width="50" height="50" relative="1" as="geometry">
                        <mxPoint x="-1071" y="664.25" as="sourcePoint"/>
                        <mxPoint x="-1027" y="586.75" as="targetPoint"/>
                    </mxGeometry>
                </mxCell>
                <mxCell id="125" value="&lt;font style=&quot;font-size: 10px;&quot; color=&quot;#003366&quot;&gt;LLM&lt;/font&gt;" style="edgeLabel;html=1;align=center;verticalAlign=middle;resizable=0;points=[];fontColor=default;fontSize=12;rounded=0;dashed=1;labelBackgroundColor=none;" vertex="1" connectable="0" parent="124">
                    <mxGeometry x="-0.2737" y="1" relative="1" as="geometry">
                        <mxPoint x="6" y="-9" as="offset"/>
                    </mxGeometry>
                </mxCell>
                <mxCell id="126" value="" style="endArrow=classic;html=1;fontColor=#004C99;entryX=0;entryY=0.25;entryDx=0;entryDy=0;fillColor=#d80073;strokeColor=#A50040;" edge="1" parent="1">
                    <mxGeometry width="50" height="50" relative="1" as="geometry">
                        <mxPoint x="-1067" y="602.25" as="sourcePoint"/>
                        <mxPoint x="-958.0199999999991" y="601.75" as="targetPoint"/>
                    </mxGeometry>
                </mxCell>
                <mxCell id="127" value="&lt;font style=&quot;font-size: 10px;&quot; color=&quot;#003366&quot;&gt;partial prompt&lt;/font&gt;" style="edgeLabel;html=1;align=center;verticalAlign=middle;resizable=0;points=[];fontColor=default;fontSize=12;rounded=0;dashed=1;labelBackgroundColor=none;" vertex="1" connectable="0" parent="126">
                    <mxGeometry x="-0.2737" y="1" relative="1" as="geometry">
                        <mxPoint x="6" y="-9" as="offset"/>
                    </mxGeometry>
                </mxCell>
                <mxCell id="128" value="&lt;span style=&quot;font-size: 6px;&quot;&gt;&lt;font color=&quot;#ffffff&quot;&gt;Prompt&lt;/font&gt;&lt;/span&gt;" style="text;html=1;align=center;verticalAlign=middle;resizable=0;points=[];autosize=1;strokeColor=none;fillColor=none;fontSize=8;fontColor=default;" vertex="1" parent="1">
                    <mxGeometry x="-902" y="645.25" width="37" height="22" as="geometry"/>
                </mxCell>
                <mxCell id="130" value="" style="verticalLabelPosition=bottom;verticalAlign=top;html=1;shape=mxgraph.infographic.cylinder;fillColor=#10739E;strokeColor=none;fontSize=8;rotation=90;" vertex="1" parent="1">
                    <mxGeometry x="-830.62" y="509.13" width="60" height="247.25" as="geometry"/>
                </mxCell>
                <mxCell id="131" value="" style="shape=cylinder3;whiteSpace=wrap;html=1;boundedLbl=1;backgroundOutline=1;size=10.352005004882812;lid=0;fontSize=8;rotation=90;fillColor=#660066;opacity=40;" vertex="1" parent="1">
                    <mxGeometry x="-841.5" y="592.5" width="60" height="80" as="geometry"/>
                </mxCell>
                <mxCell id="132" value="&lt;span style=&quot;&quot;&gt;&lt;font style=&quot;font-size: 8px;&quot; color=&quot;#ffffff&quot;&gt;Prompt&lt;br&gt;{current_files}&lt;br&gt;&lt;/font&gt;&lt;/span&gt;" style="text;html=1;align=center;verticalAlign=middle;resizable=0;points=[];autosize=1;strokeColor=none;fillColor=none;fontSize=8;fontColor=default;" vertex="1" parent="1">
                    <mxGeometry x="-847" y="616.25" width="67" height="31" as="geometry"/>
                </mxCell>
                <mxCell id="134" value="" style="shape=cylinder3;whiteSpace=wrap;html=1;boundedLbl=1;backgroundOutline=1;size=10.352005004882812;lid=0;fontSize=8;rotation=90;fillColor=#660066;opacity=40;" vertex="1" parent="1">
                    <mxGeometry x="-764.87" y="586.63" width="60" height="92.25" as="geometry"/>
                </mxCell>
                <mxCell id="219" style="edgeStyle=none;html=1;entryX=0.5;entryY=0;entryDx=0;entryDy=0;strokeColor=#006600;fontSize=8;fontColor=#660066;" edge="1" parent="1" source="136" target="137">
                    <mxGeometry relative="1" as="geometry">
                        <Array as="points">
                            <mxPoint x="-730" y="682"/>
                            <mxPoint x="-803" y="682"/>
                        </Array>
                    </mxGeometry>
                </mxCell>
                <mxCell id="220" style="edgeStyle=none;html=1;entryX=0.5;entryY=0;entryDx=0;entryDy=0;strokeColor=#006600;fontSize=8;fontColor=#660066;" edge="1" parent="1" source="136" target="139">
                    <mxGeometry relative="1" as="geometry">
                        <Array as="points">
                            <mxPoint x="-730" y="683"/>
                            <mxPoint x="-696" y="683"/>
                        </Array>
                    </mxGeometry>
                </mxCell>
                <mxCell id="136" value="&lt;font style=&quot;font-size: 8px;&quot; color=&quot;#ffffff&quot;&gt;&lt;span style=&quot;&quot;&gt;LLM&lt;/span&gt;&lt;br style=&quot;&quot;&gt;&lt;span style=&quot;&quot;&gt;tool calling&lt;br&gt;&lt;/span&gt;tools&lt;br&gt;&lt;/font&gt;" style="text;html=1;align=center;verticalAlign=middle;resizable=0;points=[];autosize=1;strokeColor=none;fillColor=none;fontSize=8;fontColor=default;" vertex="1" parent="1">
                    <mxGeometry x="-758" y="610.75" width="56" height="41" as="geometry"/>
                </mxCell>
                <mxCell id="137" value="&lt;font size=&quot;1&quot; color=&quot;#004c99&quot;&gt;&lt;b style=&quot;font-size: 8px;&quot;&gt;create_outline&lt;/b&gt;&lt;/font&gt;" style="rounded=1;whiteSpace=wrap;html=1;labelBackgroundColor=none;fontSize=8;fontColor=#660066;fillColor=#660066;opacity=40;" vertex="1" parent="1">
                    <mxGeometry x="-846.5" y="706" width="86" height="37" as="geometry"/>
                </mxCell>
                <mxCell id="139" value="&lt;font size=&quot;1&quot; color=&quot;#004c99&quot;&gt;&lt;b style=&quot;font-size: 8px;&quot;&gt;read_document&lt;/b&gt;&lt;/font&gt;" style="rounded=1;whiteSpace=wrap;html=1;labelBackgroundColor=none;fontSize=8;fontColor=#660066;fillColor=#660066;opacity=40;" vertex="1" parent="1">
                    <mxGeometry x="-747" y="706" width="101" height="37" as="geometry"/>
                </mxCell>
                <mxCell id="279" style="edgeStyle=none;html=1;entryX=0.392;entryY=1.009;entryDx=0;entryDy=0;entryPerimeter=0;strokeColor=#660066;fontSize=10;fontColor=#660066;dashed=1;" edge="1" parent="1" source="142" target="186">
                    <mxGeometry relative="1" as="geometry"/>
                </mxCell>
                <mxCell id="142" value="" style="rounded=1;whiteSpace=wrap;html=1;fillColor=none;strokeColor=#330066;dashed=1;" vertex="1" parent="1">
                    <mxGeometry x="-569" y="530.25" width="488" height="253" as="geometry"/>
                </mxCell>
                <mxCell id="143" value="&lt;font color=&quot;#004c99&quot;&gt;&lt;b&gt;CopyEditing Node&lt;/b&gt;&lt;br&gt;&lt;/font&gt;" style="text;html=1;strokeColor=none;fillColor=none;align=center;verticalAlign=middle;whiteSpace=wrap;rounded=0;dashed=1;" vertex="1" parent="1">
                    <mxGeometry x="-379" y="530.25" width="141" height="30" as="geometry"/>
                </mxCell>
                <mxCell id="144" value="" style="rounded=1;whiteSpace=wrap;html=1;dashed=1;strokeColor=#330066;fontColor=#004C99;fillColor=none;" vertex="1" parent="1">
                    <mxGeometry x="-435" y="570.25" width="321" height="204.5" as="geometry"/>
                </mxCell>
                <mxCell id="145" value="&lt;font style=&quot;&quot; color=&quot;#004c99&quot;&gt;&lt;span style=&quot;font-size: 11px;&quot;&gt;&lt;b&gt;CopyEditing Agent&lt;/b&gt;&lt;/span&gt;&lt;br&gt;&lt;span style=&quot;font-size: 8px;&quot;&gt;create_openai_functions_agent&lt;/span&gt;&lt;br&gt;&lt;/font&gt;" style="text;html=1;strokeColor=none;fillColor=none;align=center;verticalAlign=middle;whiteSpace=wrap;rounded=0;dashed=1;" vertex="1" parent="1">
                    <mxGeometry x="-357" y="570.25" width="141" height="30" as="geometry"/>
                </mxCell>
                <mxCell id="146" value="" style="endArrow=classic;html=1;fontColor=#004C99;entryX=0;entryY=0.5;entryDx=0;entryDy=0;exitX=0.09;exitY=0.562;exitDx=0;exitDy=0;exitPerimeter=0;fillColor=#d80073;strokeColor=#A50040;" edge="1" parent="1" source="142" target="144">
                    <mxGeometry width="50" height="50" relative="1" as="geometry">
                        <mxPoint x="-552" y="645.25" as="sourcePoint"/>
                        <mxPoint x="-502" y="595.25" as="targetPoint"/>
                    </mxGeometry>
                </mxCell>
                <mxCell id="147" value="&lt;font style=&quot;&quot; color=&quot;#003366&quot;&gt;LLM&lt;/font&gt;" style="edgeLabel;html=1;align=center;verticalAlign=middle;resizable=0;points=[];fontColor=default;fontSize=12;rounded=0;dashed=1;labelBackgroundColor=none;" vertex="1" connectable="0" parent="146">
                    <mxGeometry x="-0.2737" y="1" relative="1" as="geometry">
                        <mxPoint x="6" y="-9" as="offset"/>
                    </mxGeometry>
                </mxCell>
                <mxCell id="148" value="" style="endArrow=classic;html=1;fontColor=#004C99;entryX=0;entryY=0.25;entryDx=0;entryDy=0;exitX=0.082;exitY=0.398;exitDx=0;exitDy=0;exitPerimeter=0;fillColor=#d80073;strokeColor=#A50040;" edge="1" parent="1">
                    <mxGeometry width="50" height="50" relative="1" as="geometry">
                        <mxPoint x="-527.0039999999995" y="610.3119999999999" as="sourcePoint"/>
                        <mxPoint x="-433.0199999999991" y="610.25" as="targetPoint"/>
                    </mxGeometry>
                </mxCell>
                <mxCell id="149" value="&lt;font style=&quot;&quot; color=&quot;#003366&quot;&gt;partial prompt&lt;/font&gt;" style="edgeLabel;html=1;align=center;verticalAlign=middle;resizable=0;points=[];fontColor=default;fontSize=12;rounded=0;dashed=1;labelBackgroundColor=none;" vertex="1" connectable="0" parent="148">
                    <mxGeometry x="-0.2737" y="1" relative="1" as="geometry">
                        <mxPoint x="6" y="-9" as="offset"/>
                    </mxGeometry>
                </mxCell>
                <mxCell id="150" value="&lt;span style=&quot;font-size: 6px;&quot;&gt;&lt;font color=&quot;#ffffff&quot;&gt;Prompt&lt;/font&gt;&lt;/span&gt;" style="text;html=1;align=center;verticalAlign=middle;resizable=0;points=[];autosize=1;strokeColor=none;fillColor=none;fontSize=8;fontColor=default;" vertex="1" parent="1">
                    <mxGeometry x="-377" y="653.75" width="37" height="22" as="geometry"/>
                </mxCell>
                <mxCell id="152" value="" style="verticalLabelPosition=bottom;verticalAlign=top;html=1;shape=mxgraph.infographic.cylinder;fillColor=#10739E;strokeColor=none;fontSize=8;rotation=90;" vertex="1" parent="1">
                    <mxGeometry x="-311.25" y="523.25" width="60" height="236" as="geometry"/>
                </mxCell>
                <mxCell id="153" value="" style="shape=cylinder3;whiteSpace=wrap;html=1;boundedLbl=1;backgroundOutline=1;size=10.352005004882812;lid=0;fontSize=8;rotation=90;fillColor=#660066;opacity=40;" vertex="1" parent="1">
                    <mxGeometry x="-316.5" y="599.88" width="60" height="80" as="geometry"/>
                </mxCell>
                <mxCell id="154" value="&lt;span style=&quot;&quot;&gt;&lt;font style=&quot;font-size: 8px;&quot; color=&quot;#ffffff&quot;&gt;Prompt&lt;br&gt;{current_files}&lt;br&gt;&lt;/font&gt;&lt;/span&gt;" style="text;html=1;align=center;verticalAlign=middle;resizable=0;points=[];autosize=1;strokeColor=none;fillColor=none;fontSize=8;fontColor=default;" vertex="1" parent="1">
                    <mxGeometry x="-320" y="628.38" width="67" height="31" as="geometry"/>
                </mxCell>
                <mxCell id="156" value="" style="shape=cylinder3;whiteSpace=wrap;html=1;boundedLbl=1;backgroundOutline=1;size=10.352005004882812;lid=0;fontSize=8;rotation=90;fillColor=#660066;opacity=40;" vertex="1" parent="1">
                    <mxGeometry x="-245.62" y="599.88" width="60" height="82.75" as="geometry"/>
                </mxCell>
                <mxCell id="221" style="edgeStyle=none;html=1;entryX=0.5;entryY=0;entryDx=0;entryDy=0;strokeColor=#006600;fontSize=8;fontColor=#660066;" edge="1" parent="1" source="158" target="160">
                    <mxGeometry relative="1" as="geometry">
                        <Array as="points">
                            <mxPoint x="-212" y="692"/>
                            <mxPoint x="-174" y="692"/>
                        </Array>
                    </mxGeometry>
                </mxCell>
                <mxCell id="222" style="edgeStyle=none;html=1;entryX=0.5;entryY=0;entryDx=0;entryDy=0;strokeColor=#006600;fontSize=8;fontColor=#660066;" edge="1" parent="1" source="158" target="161">
                    <mxGeometry relative="1" as="geometry">
                        <Array as="points">
                            <mxPoint x="-212" y="692"/>
                            <mxPoint x="-272" y="694"/>
                        </Array>
                    </mxGeometry>
                </mxCell>
                <mxCell id="223" style="edgeStyle=none;html=1;entryX=0.5;entryY=0;entryDx=0;entryDy=0;strokeColor=#006600;fontSize=8;fontColor=#660066;" edge="1" parent="1" source="158" target="159">
                    <mxGeometry relative="1" as="geometry">
                        <Array as="points">
                            <mxPoint x="-212" y="694"/>
                            <mxPoint x="-359" y="694"/>
                        </Array>
                    </mxGeometry>
                </mxCell>
                <mxCell id="158" value="&lt;font style=&quot;font-size: 8px;&quot; color=&quot;#ffffff&quot;&gt;&lt;span style=&quot;&quot;&gt;LLM&lt;/span&gt;&lt;br style=&quot;&quot;&gt;&lt;span style=&quot;&quot;&gt;tool calling&lt;/span&gt;&lt;br&gt;&lt;/font&gt;" style="text;html=1;align=center;verticalAlign=middle;resizable=0;points=[];autosize=1;strokeColor=none;fillColor=none;fontSize=8;fontColor=default;" vertex="1" parent="1">
                    <mxGeometry x="-240" y="625.75" width="56" height="31" as="geometry"/>
                </mxCell>
                <mxCell id="159" value="&lt;font size=&quot;1&quot; color=&quot;#004c99&quot;&gt;&lt;b style=&quot;font-size: 8px;&quot;&gt;write_document&lt;/b&gt;&lt;/font&gt;" style="rounded=1;whiteSpace=wrap;html=1;labelBackgroundColor=none;fontSize=8;fontColor=#660066;fillColor=#660066;opacity=40;" vertex="1" parent="1">
                    <mxGeometry x="-401" y="718.25" width="80" height="37" as="geometry"/>
                </mxCell>
                <mxCell id="160" value="&lt;font size=&quot;1&quot; color=&quot;#004c99&quot;&gt;&lt;b style=&quot;font-size: 8px;&quot;&gt;read_document&lt;/b&gt;&lt;/font&gt;" style="rounded=1;whiteSpace=wrap;html=1;labelBackgroundColor=none;fontSize=8;fontColor=#660066;fillColor=#660066;opacity=40;" vertex="1" parent="1">
                    <mxGeometry x="-212" y="719.13" width="76" height="37" as="geometry"/>
                </mxCell>
                <mxCell id="161" value="&lt;font size=&quot;1&quot; color=&quot;#004c99&quot;&gt;&lt;b style=&quot;font-size: 8px;&quot;&gt;edit_document&lt;/b&gt;&lt;/font&gt;" style="rounded=1;whiteSpace=wrap;html=1;labelBackgroundColor=none;fontSize=8;fontColor=#660066;fillColor=#660066;opacity=40;" vertex="1" parent="1">
                    <mxGeometry x="-311.25" y="719.13" width="82" height="37" as="geometry"/>
                </mxCell>
                <mxCell id="162" value="" style="endArrow=classic;html=1;fontColor=#004C99;entryX=0.5;entryY=1;entryDx=0;entryDy=0;fillColor=#d80073;strokeColor=#A50040;entryPerimeter=0;" edge="1" parent="1" target="152">
                    <mxGeometry width="50" height="50" relative="1" as="geometry">
                        <mxPoint x="-528" y="641.75" as="sourcePoint"/>
                        <mxPoint x="-423.0199999999991" y="620.25" as="targetPoint"/>
                    </mxGeometry>
                </mxCell>
                <mxCell id="163" value="&lt;font style=&quot;&quot; color=&quot;#003366&quot;&gt;prelude (helper function)&lt;/font&gt;" style="edgeLabel;html=1;align=center;verticalAlign=middle;resizable=0;points=[];fontColor=default;fontSize=12;rounded=0;dashed=1;labelBackgroundColor=none;" vertex="1" connectable="0" parent="162">
                    <mxGeometry x="-0.2737" y="1" relative="1" as="geometry">
                        <mxPoint x="6" y="-9" as="offset"/>
                    </mxGeometry>
                </mxCell>
                <mxCell id="276" style="edgeStyle=none;html=1;exitX=1;exitY=0.25;exitDx=0;exitDy=0;entryX=0.001;entryY=0.585;entryDx=0;entryDy=0;entryPerimeter=0;strokeColor=#660066;fontSize=10;fontColor=#660066;dashed=1;" edge="1" parent="1" source="164" target="186">
                    <mxGeometry relative="1" as="geometry"/>
                </mxCell>
                <mxCell id="164" value="" style="rounded=1;whiteSpace=wrap;html=1;fillColor=none;strokeColor=#330066;dashed=1;" vertex="1" parent="1">
                    <mxGeometry x="-1540.5" y="169" width="465" height="253" as="geometry"/>
                </mxCell>
                <mxCell id="165" value="&lt;font color=&quot;#004c99&quot;&gt;&lt;b&gt;DopnessEditor Node&lt;/b&gt;&lt;br&gt;&lt;/font&gt;" style="text;html=1;strokeColor=none;fillColor=none;align=center;verticalAlign=middle;whiteSpace=wrap;rounded=0;dashed=1;" vertex="1" parent="1">
                    <mxGeometry x="-1373.5" y="169" width="141" height="30" as="geometry"/>
                </mxCell>
                <mxCell id="166" value="" style="rounded=1;whiteSpace=wrap;html=1;dashed=1;strokeColor=#330066;fontColor=#004C99;fillColor=none;" vertex="1" parent="1">
                    <mxGeometry x="-1429.5" y="209" width="321" height="204.5" as="geometry"/>
                </mxCell>
                <mxCell id="167" value="&lt;font style=&quot;&quot; color=&quot;#004c99&quot;&gt;&lt;span style=&quot;font-size: 11px;&quot;&gt;&lt;b&gt;DocWriter Agent&lt;/b&gt;&lt;/span&gt;&lt;br&gt;&lt;span style=&quot;font-size: 8px;&quot;&gt;create_openai_functions_agent&lt;/span&gt;&lt;br&gt;&lt;/font&gt;" style="text;html=1;strokeColor=none;fillColor=none;align=center;verticalAlign=middle;whiteSpace=wrap;rounded=0;dashed=1;" vertex="1" parent="1">
                    <mxGeometry x="-1351.5" y="209" width="141" height="30" as="geometry"/>
                </mxCell>
                <mxCell id="168" value="" style="endArrow=classic;html=1;fontColor=#004C99;entryX=0;entryY=0.5;entryDx=0;entryDy=0;exitX=0.09;exitY=0.562;exitDx=0;exitDy=0;exitPerimeter=0;fillColor=#d80073;strokeColor=#A50040;" edge="1" parent="1" source="164" target="166">
                    <mxGeometry width="50" height="50" relative="1" as="geometry">
                        <mxPoint x="-1546.5" y="284" as="sourcePoint"/>
                        <mxPoint x="-1496.5" y="234" as="targetPoint"/>
                    </mxGeometry>
                </mxCell>
                <mxCell id="169" value="&lt;font style=&quot;&quot; color=&quot;#003366&quot;&gt;LLM&lt;/font&gt;" style="edgeLabel;html=1;align=center;verticalAlign=middle;resizable=0;points=[];fontColor=default;fontSize=12;rounded=0;dashed=1;labelBackgroundColor=none;" vertex="1" connectable="0" parent="168">
                    <mxGeometry x="-0.2737" y="1" relative="1" as="geometry">
                        <mxPoint x="6" y="-9" as="offset"/>
                    </mxGeometry>
                </mxCell>
                <mxCell id="170" value="" style="endArrow=classic;html=1;fontColor=#004C99;entryX=0;entryY=0.25;entryDx=0;entryDy=0;exitX=0.082;exitY=0.398;exitDx=0;exitDy=0;exitPerimeter=0;fillColor=#d80073;strokeColor=#A50040;" edge="1" parent="1">
                    <mxGeometry width="50" height="50" relative="1" as="geometry">
                        <mxPoint x="-1521.5039999999995" y="249.0619999999999" as="sourcePoint"/>
                        <mxPoint x="-1427.519999999999" y="249" as="targetPoint"/>
                    </mxGeometry>
                </mxCell>
                <mxCell id="171" value="&lt;font style=&quot;&quot; color=&quot;#003366&quot;&gt;partial prompt&lt;/font&gt;" style="edgeLabel;html=1;align=center;verticalAlign=middle;resizable=0;points=[];fontColor=default;fontSize=12;rounded=0;dashed=1;labelBackgroundColor=none;" vertex="1" connectable="0" parent="170">
                    <mxGeometry x="-0.2737" y="1" relative="1" as="geometry">
                        <mxPoint x="6" y="-9" as="offset"/>
                    </mxGeometry>
                </mxCell>
                <mxCell id="172" value="&lt;span style=&quot;font-size: 6px;&quot;&gt;&lt;font color=&quot;#ffffff&quot;&gt;Prompt&lt;/font&gt;&lt;/span&gt;" style="text;html=1;align=center;verticalAlign=middle;resizable=0;points=[];autosize=1;strokeColor=none;fillColor=none;fontSize=8;fontColor=default;" vertex="1" parent="1">
                    <mxGeometry x="-1371.5" y="292.5" width="37" height="22" as="geometry"/>
                </mxCell>
                <mxCell id="174" value="" style="verticalLabelPosition=bottom;verticalAlign=top;html=1;shape=mxgraph.infographic.cylinder;fillColor=#10739E;strokeColor=none;fontSize=8;rotation=90;" vertex="1" parent="1">
                    <mxGeometry x="-1305.75" y="162" width="60" height="236" as="geometry"/>
                </mxCell>
                <mxCell id="175" value="" style="shape=cylinder3;whiteSpace=wrap;html=1;boundedLbl=1;backgroundOutline=1;size=10.352005004882812;lid=0;fontSize=8;rotation=90;fillColor=#660066;opacity=40;" vertex="1" parent="1">
                    <mxGeometry x="-1311" y="240" width="60" height="80" as="geometry"/>
                </mxCell>
                <mxCell id="176" value="&lt;span style=&quot;&quot;&gt;&lt;font style=&quot;font-size: 8px;&quot; color=&quot;#ffffff&quot;&gt;Prompt&lt;br&gt;{current_files}&lt;br&gt;&lt;/font&gt;&lt;/span&gt;" style="text;html=1;align=center;verticalAlign=middle;resizable=0;points=[];autosize=1;strokeColor=none;fillColor=none;fontSize=8;fontColor=default;" vertex="1" parent="1">
                    <mxGeometry x="-1314.5" y="268.5" width="67" height="31" as="geometry"/>
                </mxCell>
                <mxCell id="178" value="" style="shape=cylinder3;whiteSpace=wrap;html=1;boundedLbl=1;backgroundOutline=1;size=10.352005004882812;lid=0;fontSize=8;rotation=90;fillColor=#660066;opacity=40;" vertex="1" parent="1">
                    <mxGeometry x="-1238.75" y="238" width="60" height="82" as="geometry"/>
                </mxCell>
                <mxCell id="226" style="edgeStyle=none;html=1;entryX=0.5;entryY=0;entryDx=0;entryDy=0;strokeColor=#006600;fontSize=8;fontColor=#660066;" edge="1" parent="1" source="180" target="182">
                    <mxGeometry relative="1" as="geometry">
                        <Array as="points">
                            <mxPoint x="-1209.5" y="333"/>
                            <mxPoint x="-1171.5" y="333"/>
                        </Array>
                    </mxGeometry>
                </mxCell>
                <mxCell id="227" style="edgeStyle=none;html=1;entryX=0.5;entryY=0;entryDx=0;entryDy=0;strokeColor=#006600;fontSize=8;fontColor=#660066;" edge="1" parent="1" source="180" target="183">
                    <mxGeometry relative="1" as="geometry">
                        <Array as="points">
                            <mxPoint x="-1209.5" y="331"/>
                            <mxPoint x="-1264.5" y="334"/>
                        </Array>
                    </mxGeometry>
                </mxCell>
                <mxCell id="228" style="edgeStyle=none;html=1;entryX=0.5;entryY=0;entryDx=0;entryDy=0;strokeColor=#006600;fontSize=8;fontColor=#660066;" edge="1" parent="1" source="180" target="181">
                    <mxGeometry relative="1" as="geometry">
                        <Array as="points">
                            <mxPoint x="-1209.5" y="333"/>
                            <mxPoint x="-1366.5" y="333"/>
                        </Array>
                    </mxGeometry>
                </mxCell>
                <mxCell id="180" value="&lt;font style=&quot;font-size: 8px;&quot; color=&quot;#ffffff&quot;&gt;&lt;span style=&quot;&quot;&gt;LLM&lt;/span&gt;&lt;br style=&quot;&quot;&gt;&lt;span style=&quot;&quot;&gt;FunctionCalling&lt;br&gt;&lt;/span&gt;tools&lt;br&gt;&lt;/font&gt;" style="text;html=1;align=center;verticalAlign=middle;resizable=0;points=[];autosize=1;strokeColor=none;fillColor=none;fontSize=8;fontColor=default;" vertex="1" parent="1">
                    <mxGeometry x="-1246.25" y="257.5" width="73" height="41" as="geometry"/>
                </mxCell>
                <mxCell id="181" value="&lt;font size=&quot;1&quot; color=&quot;#004c99&quot;&gt;&lt;b style=&quot;font-size: 8px;&quot;&gt;write_document&lt;/b&gt;&lt;/font&gt;" style="rounded=1;whiteSpace=wrap;html=1;labelBackgroundColor=none;fontSize=8;fontColor=#660066;fillColor=#660066;opacity=40;" vertex="1" parent="1">
                    <mxGeometry x="-1401.5" y="361" width="70" height="37" as="geometry"/>
                </mxCell>
                <mxCell id="182" value="&lt;font size=&quot;1&quot; color=&quot;#004c99&quot;&gt;&lt;b style=&quot;font-size: 8px;&quot;&gt;read_document&lt;/b&gt;&lt;/font&gt;" style="rounded=1;whiteSpace=wrap;html=1;labelBackgroundColor=none;fontSize=8;fontColor=#660066;fillColor=#660066;opacity=40;" vertex="1" parent="1">
                    <mxGeometry x="-1210.5" y="362.5" width="78" height="37" as="geometry"/>
                </mxCell>
                <mxCell id="183" value="&lt;font size=&quot;1&quot; color=&quot;#004c99&quot;&gt;&lt;b style=&quot;font-size: 8px;&quot;&gt;edit_document&lt;/b&gt;&lt;/font&gt;" style="rounded=1;whiteSpace=wrap;html=1;labelBackgroundColor=none;fontSize=8;fontColor=#660066;fillColor=#660066;opacity=40;" vertex="1" parent="1">
                    <mxGeometry x="-1303.5" y="362.5" width="77" height="37" as="geometry"/>
                </mxCell>
                <mxCell id="184" value="" style="endArrow=classic;html=1;fontColor=#004C99;entryX=0.5;entryY=1;entryDx=0;entryDy=0;fillColor=#d80073;strokeColor=#A50040;entryPerimeter=0;" edge="1" parent="1" target="174">
                    <mxGeometry width="50" height="50" relative="1" as="geometry">
                        <mxPoint x="-1522.5" y="280.5" as="sourcePoint"/>
                        <mxPoint x="-1417.519999999999" y="259" as="targetPoint"/>
                    </mxGeometry>
                </mxCell>
                <mxCell id="185" value="&lt;font style=&quot;&quot; color=&quot;#003366&quot;&gt;prelude (helper function)&lt;/font&gt;" style="edgeLabel;html=1;align=center;verticalAlign=middle;resizable=0;points=[];fontColor=default;fontSize=12;rounded=0;dashed=1;labelBackgroundColor=none;" vertex="1" connectable="0" parent="184">
                    <mxGeometry x="-0.2737" y="1" relative="1" as="geometry">
                        <mxPoint x="6" y="-9" as="offset"/>
                    </mxGeometry>
                </mxCell>
                <mxCell id="186" value="" style="rounded=1;whiteSpace=wrap;html=1;fillColor=none;strokeColor=#330066;dashed=1;" vertex="1" parent="1">
                    <mxGeometry x="-725" y="52" width="389" height="348.5" as="geometry"/>
                </mxCell>
                <mxCell id="187" value="&lt;font color=&quot;#004c99&quot;&gt;&lt;b&gt;DocWriting Supervisor Node&lt;/b&gt;&lt;/font&gt;" style="text;html=1;strokeColor=none;fillColor=none;align=center;verticalAlign=middle;whiteSpace=wrap;rounded=0;dashed=1;" vertex="1" parent="1">
                    <mxGeometry x="-595" y="49" width="141" height="30" as="geometry"/>
                </mxCell>
                <mxCell id="188" value="" style="rounded=1;whiteSpace=wrap;html=1;dashed=1;strokeColor=#330066;fontColor=#004C99;fillColor=none;" vertex="1" parent="1">
                    <mxGeometry x="-678" y="107" width="321" height="140" as="geometry"/>
                </mxCell>
                <mxCell id="189" value="&lt;font style=&quot;&quot; color=&quot;#004c99&quot;&gt;&lt;span style=&quot;font-size: 10px;&quot;&gt;&lt;b&gt;Agent&lt;/b&gt;&lt;br&gt;(&lt;/span&gt;&lt;/font&gt;&lt;font color=&quot;#004c99&quot;&gt;&lt;span style=&quot;font-size: 10px;&quot;&gt;create_openai_functions_agent)&lt;/span&gt;&lt;/font&gt;" style="text;html=1;strokeColor=none;fillColor=none;align=center;verticalAlign=middle;whiteSpace=wrap;rounded=0;dashed=1;" vertex="1" parent="1">
                    <mxGeometry x="-595" y="106.12" width="141" height="30" as="geometry"/>
                </mxCell>
                <mxCell id="190" value="" style="endArrow=classic;html=1;fontColor=#004C99;fillColor=#d80073;strokeColor=#A50040;entryX=-0.002;entryY=0.194;entryDx=0;entryDy=0;entryPerimeter=0;" edge="1" parent="1" target="186">
                    <mxGeometry width="50" height="50" relative="1" as="geometry">
                        <mxPoint x="-843" y="122" as="sourcePoint"/>
                        <mxPoint x="-809" y="115.5" as="targetPoint"/>
                    </mxGeometry>
                </mxCell>
                <mxCell id="191" value="&lt;font style=&quot;&quot; color=&quot;#003366&quot;&gt;LLM&lt;/font&gt;" style="edgeLabel;html=1;align=center;verticalAlign=middle;resizable=0;points=[];fontColor=default;fontSize=12;rounded=0;dashed=1;labelBackgroundColor=none;" vertex="1" connectable="0" parent="190">
                    <mxGeometry x="-0.2737" y="1" relative="1" as="geometry">
                        <mxPoint x="6" y="-9" as="offset"/>
                    </mxGeometry>
                </mxCell>
                <mxCell id="192" value="" style="endArrow=classic;html=1;fontColor=#004C99;fillColor=#d80073;strokeColor=#A50040;entryX=0.001;entryY=0.309;entryDx=0;entryDy=0;entryPerimeter=0;" edge="1" parent="1" target="186">
                    <mxGeometry width="50" height="50" relative="1" as="geometry">
                        <mxPoint x="-840" y="160" as="sourcePoint"/>
                        <mxPoint x="-811" y="154.5" as="targetPoint"/>
                    </mxGeometry>
                </mxCell>
                <mxCell id="193" value="&lt;font style=&quot;&quot; color=&quot;#003366&quot;&gt;partial prompt&lt;/font&gt;" style="edgeLabel;html=1;align=center;verticalAlign=middle;resizable=0;points=[];fontColor=default;fontSize=12;rounded=0;dashed=1;labelBackgroundColor=none;" vertex="1" connectable="0" parent="192">
                    <mxGeometry x="-0.2737" y="1" relative="1" as="geometry">
                        <mxPoint x="6" y="-9" as="offset"/>
                    </mxGeometry>
                </mxCell>
                <mxCell id="194" value="" style="endArrow=classic;html=1;fontColor=#004C99;fillColor=#d80073;strokeColor=#A50040;entryX=0.002;entryY=0.415;entryDx=0;entryDy=0;entryPerimeter=0;" edge="1" parent="1" target="186">
                    <mxGeometry width="50" height="50" relative="1" as="geometry">
                        <mxPoint x="-843" y="197" as="sourcePoint"/>
                        <mxPoint x="-811" y="202.5" as="targetPoint"/>
                    </mxGeometry>
                </mxCell>
                <mxCell id="195" value="&lt;font style=&quot;&quot; color=&quot;#003366&quot;&gt;members&lt;br&gt;&lt;font style=&quot;font-size: 8px;&quot;&gt;search and research&lt;/font&gt;&lt;br&gt;&lt;/font&gt;" style="edgeLabel;html=1;align=center;verticalAlign=middle;resizable=0;points=[];fontColor=default;fontSize=12;rounded=0;dashed=1;labelBackgroundColor=none;" vertex="1" connectable="0" parent="194">
                    <mxGeometry x="-0.2737" y="1" relative="1" as="geometry">
                        <mxPoint x="22" y="-3" as="offset"/>
                    </mxGeometry>
                </mxCell>
                <mxCell id="196" value="" style="endArrow=classic;html=1;fontColor=#004C99;entryX=0.5;entryY=0;entryDx=0;entryDy=0;exitX=0.364;exitY=1.008;exitDx=0;exitDy=0;exitPerimeter=0;fillColor=#d80073;strokeColor=#A50040;" edge="1" parent="1" source="188" target="198">
                    <mxGeometry width="50" height="50" relative="1" as="geometry">
                        <mxPoint x="-356.9960000000001" y="159.562" as="sourcePoint"/>
                        <mxPoint x="-275.23" y="159.5" as="targetPoint"/>
                    </mxGeometry>
                </mxCell>
                <mxCell id="197" value="&lt;font style=&quot;font-size: 8px;&quot; color=&quot;#003366&quot;&gt;AIMessage&lt;br&gt;tool_calls(Finish,&lt;br&gt;DocWriter,&lt;br&gt;NoteTaker,&lt;br&gt;CopyEditor,&lt;br&gt;DopensessEditor)&lt;br&gt;&lt;/font&gt;" style="edgeLabel;html=1;align=center;verticalAlign=middle;resizable=0;points=[];fontColor=default;fontSize=12;rounded=0;dashed=1;labelBackgroundColor=none;" vertex="1" connectable="0" parent="196">
                    <mxGeometry x="-0.2737" y="1" relative="1" as="geometry">
                        <mxPoint x="90" y="24" as="offset"/>
                    </mxGeometry>
                </mxCell>
                <mxCell id="202" style="edgeStyle=none;html=1;entryX=1;entryY=0.5;entryDx=0;entryDy=0;strokeColor=#006600;fontSize=8;fontColor=#660066;" edge="1" parent="1" source="198" target="164">
                    <mxGeometry relative="1" as="geometry"/>
                </mxCell>
                <mxCell id="203" style="edgeStyle=none;html=1;entryX=0.36;entryY=-0.003;entryDx=0;entryDy=0;entryPerimeter=0;strokeColor=#006600;fontSize=8;fontColor=#660066;" edge="1" parent="1" source="198" target="93">
                    <mxGeometry relative="1" as="geometry"/>
                </mxCell>
                <mxCell id="204" style="edgeStyle=none;html=1;entryX=0.5;entryY=0;entryDx=0;entryDy=0;strokeColor=#006600;fontSize=8;fontColor=#660066;" edge="1" parent="1" source="198" target="121">
                    <mxGeometry relative="1" as="geometry"/>
                </mxCell>
                <mxCell id="205" style="edgeStyle=none;html=1;exitX=0.5;exitY=1;exitDx=0;exitDy=0;entryX=0.5;entryY=0;entryDx=0;entryDy=0;strokeColor=#006600;fontSize=8;fontColor=#660066;" edge="1" parent="1" source="198" target="143">
                    <mxGeometry relative="1" as="geometry"/>
                </mxCell>
                <mxCell id="207" style="edgeStyle=none;html=1;entryX=0;entryY=0.5;entryDx=0;entryDy=0;strokeColor=#006600;fontSize=8;fontColor=#660066;" edge="1" parent="1" source="198" target="206">
                    <mxGeometry relative="1" as="geometry"/>
                </mxCell>
                <mxCell id="198" value="Conditioanl Edge" style="rhombus;whiteSpace=wrap;html=1;dashed=1;labelBackgroundColor=none;strokeColor=#330066;fontSize=8;fontColor=#003366;fillColor=none;" vertex="1" parent="1">
                    <mxGeometry x="-624" y="285" width="127" height="104" as="geometry"/>
                </mxCell>
                <mxCell id="273" style="edgeStyle=none;html=1;entryX=0.021;entryY=0.937;entryDx=0;entryDy=0;entryPerimeter=0;strokeColor=#006600;fontSize=8;fontColor=#660066;dashed=1;" edge="1" parent="1" source="206" target="249">
                    <mxGeometry relative="1" as="geometry"/>
                </mxCell>
                <mxCell id="206" value="Finish" style="rounded=0;whiteSpace=wrap;html=1;labelBackgroundColor=none;fontSize=8;fontColor=#660066;fillColor=#660066;opacity=40;" vertex="1" parent="1">
                    <mxGeometry x="-292" y="305" width="120" height="60" as="geometry"/>
                </mxCell>
                <mxCell id="209" value="" style="shape=cylinder3;whiteSpace=wrap;html=1;boundedLbl=1;backgroundOutline=1;size=10.352005004882812;lid=0;fontSize=8;rotation=90;fillColor=#660066;opacity=40;" vertex="1" parent="1">
                    <mxGeometry x="-912.5" y="592.25" width="60" height="80" as="geometry"/>
                </mxCell>
                <mxCell id="210" value="&lt;span style=&quot;&quot;&gt;&lt;font style=&quot;font-size: 8px;&quot; color=&quot;#ffffff&quot;&gt;prelude&lt;br&gt;(helper function)&lt;br&gt;&lt;/font&gt;&lt;/span&gt;" style="text;html=1;align=center;verticalAlign=middle;resizable=0;points=[];autosize=1;strokeColor=none;fillColor=none;fontSize=8;fontColor=default;" vertex="1" parent="1">
                    <mxGeometry x="-922.5" y="617.25" width="76" height="31" as="geometry"/>
                </mxCell>
                <mxCell id="211" value="" style="shape=cylinder3;whiteSpace=wrap;html=1;boundedLbl=1;backgroundOutline=1;size=10.352005004882812;lid=0;fontSize=8;rotation=90;fillColor=#660066;opacity=40;" vertex="1" parent="1">
                    <mxGeometry x="-1353" y="598" width="60" height="80" as="geometry"/>
                </mxCell>
                <mxCell id="212" value="&lt;span style=&quot;&quot;&gt;&lt;font style=&quot;font-size: 8px;&quot; color=&quot;#ffffff&quot;&gt;Prompt&lt;br&gt;{current_files}&lt;br&gt;&lt;/font&gt;&lt;/span&gt;" style="text;html=1;align=center;verticalAlign=middle;resizable=0;points=[];autosize=1;strokeColor=none;fillColor=none;fontSize=8;fontColor=default;" vertex="1" parent="1">
                    <mxGeometry x="-1357" y="623.5" width="67" height="31" as="geometry"/>
                </mxCell>
                <mxCell id="216" value="" style="shape=cylinder3;whiteSpace=wrap;html=1;boundedLbl=1;backgroundOutline=1;size=10.352005004882812;lid=0;fontSize=8;rotation=90;fillColor=#660066;opacity=40;" vertex="1" parent="1">
                    <mxGeometry x="-388.5" y="601.25" width="60" height="80" as="geometry"/>
                </mxCell>
                <mxCell id="217" value="&lt;span style=&quot;&quot;&gt;&lt;font style=&quot;font-size: 8px;&quot; color=&quot;#ffffff&quot;&gt;prelude&lt;br&gt;(helper function)&lt;br&gt;&lt;/font&gt;&lt;/span&gt;" style="text;html=1;align=center;verticalAlign=middle;resizable=0;points=[];autosize=1;strokeColor=none;fillColor=none;fontSize=8;fontColor=default;" vertex="1" parent="1">
                    <mxGeometry x="-401" y="627.5" width="76" height="31" as="geometry"/>
                </mxCell>
                <mxCell id="224" value="" style="shape=cylinder3;whiteSpace=wrap;html=1;boundedLbl=1;backgroundOutline=1;size=10.352005004882812;lid=0;fontSize=8;rotation=90;fillColor=#660066;opacity=40;" vertex="1" parent="1">
                    <mxGeometry x="-1383" y="240" width="60" height="80" as="geometry"/>
                </mxCell>
                <mxCell id="225" value="&lt;span style=&quot;&quot;&gt;&lt;font style=&quot;font-size: 8px;&quot; color=&quot;#ffffff&quot;&gt;Prompt&lt;br&gt;{current_files}&lt;br&gt;&lt;/font&gt;&lt;/span&gt;" style="text;html=1;align=center;verticalAlign=middle;resizable=0;points=[];autosize=1;strokeColor=none;fillColor=none;fontSize=8;fontColor=default;" vertex="1" parent="1">
                    <mxGeometry x="-1386.5" y="268.5" width="67" height="31" as="geometry"/>
                </mxCell>
                <mxCell id="231" value="&lt;span style=&quot;font-size: 6px;&quot;&gt;&lt;font color=&quot;#ffffff&quot;&gt;Prompt&lt;/font&gt;&lt;/span&gt;" style="text;html=1;align=center;verticalAlign=middle;resizable=0;points=[];autosize=1;strokeColor=none;fillColor=none;fontSize=8;fontColor=default;" vertex="1" parent="1">
                    <mxGeometry x="-240.5" y="106.12" width="37" height="22" as="geometry"/>
                </mxCell>
                <mxCell id="242" value="" style="group" vertex="1" connectable="0" parent="1">
                    <mxGeometry x="-619" y="151" width="177" height="60.25999999999999" as="geometry"/>
                </mxCell>
                <mxCell id="232" value="" style="verticalLabelPosition=bottom;verticalAlign=top;html=1;shape=mxgraph.infographic.cylinder;fillColor=#10739E;strokeColor=none;fontSize=8;rotation=90;" vertex="1" parent="242">
                    <mxGeometry x="58.5" y="-58.24" width="60" height="177" as="geometry"/>
                </mxCell>
                <mxCell id="233" value="" style="shape=cylinder3;whiteSpace=wrap;html=1;boundedLbl=1;backgroundOutline=1;size=10.352005004882812;lid=0;fontSize=8;rotation=90;fillColor=#660066;opacity=40;" vertex="1" parent="242">
                    <mxGeometry x="12.490000000000009" y="-10" width="60" height="80" as="geometry"/>
                </mxCell>
                <mxCell id="234" value="&lt;span style=&quot;&quot;&gt;&lt;font style=&quot;font-size: 8px;&quot; color=&quot;#ffffff&quot;&gt;Prompt&lt;br&gt;&lt;/font&gt;&lt;/span&gt;" style="text;html=1;align=center;verticalAlign=middle;resizable=0;points=[];autosize=1;strokeColor=none;fillColor=none;fontSize=8;fontColor=default;" vertex="1" parent="242">
                    <mxGeometry x="18.99000000000001" y="18.75" width="44" height="22" as="geometry"/>
                </mxCell>
                <mxCell id="235" value="" style="shape=cylinder3;whiteSpace=wrap;html=1;boundedLbl=1;backgroundOutline=1;size=10.352005004882812;lid=0;fontSize=8;rotation=90;fillColor=#660066;opacity=40;" vertex="1" parent="242">
                    <mxGeometry x="89.12" y="-15.870000000000005" width="60" height="92.25" as="geometry"/>
                </mxCell>
                <mxCell id="238" value="&lt;font style=&quot;font-size: 8px;&quot; color=&quot;#ffffff&quot;&gt;&lt;span style=&quot;&quot;&gt;LLM&lt;/span&gt;&lt;br style=&quot;&quot;&gt;&lt;span style=&quot;&quot;&gt;FunctionCalling&lt;/span&gt;&lt;br&gt;&lt;/font&gt;" style="text;html=1;align=center;verticalAlign=middle;resizable=0;points=[];autosize=1;strokeColor=none;fillColor=none;fontSize=8;fontColor=default;" vertex="1" parent="242">
                    <mxGeometry x="86.99000000000001" y="13.25" width="73" height="31" as="geometry"/>
                </mxCell>
                <mxCell id="243" value="" style="group" vertex="1" connectable="0" parent="1">
                    <mxGeometry x="549" y="159" width="177" height="60.25999999999999" as="geometry"/>
                </mxCell>
                <mxCell id="244" value="" style="verticalLabelPosition=bottom;verticalAlign=top;html=1;shape=mxgraph.infographic.cylinder;fillColor=#10739E;strokeColor=none;fontSize=8;rotation=90;" vertex="1" parent="243">
                    <mxGeometry x="58.5" y="-58.24" width="60" height="177" as="geometry"/>
                </mxCell>
                <mxCell id="245" value="" style="shape=cylinder3;whiteSpace=wrap;html=1;boundedLbl=1;backgroundOutline=1;size=10.352005004882812;lid=0;fontSize=8;rotation=90;fillColor=#660066;opacity=40;" vertex="1" parent="243">
                    <mxGeometry x="12.490000000000009" y="-10" width="60" height="80" as="geometry"/>
                </mxCell>
                <mxCell id="246" value="&lt;span style=&quot;&quot;&gt;&lt;font style=&quot;font-size: 8px;&quot; color=&quot;#ffffff&quot;&gt;Prompt&lt;br&gt;&lt;/font&gt;&lt;/span&gt;" style="text;html=1;align=center;verticalAlign=middle;resizable=0;points=[];autosize=1;strokeColor=none;fillColor=none;fontSize=8;fontColor=default;" vertex="1" parent="243">
                    <mxGeometry x="18.99000000000001" y="18.75" width="44" height="22" as="geometry"/>
                </mxCell>
                <mxCell id="247" value="" style="shape=cylinder3;whiteSpace=wrap;html=1;boundedLbl=1;backgroundOutline=1;size=10.352005004882812;lid=0;fontSize=8;rotation=90;fillColor=#660066;opacity=40;" vertex="1" parent="243">
                    <mxGeometry x="89.12" y="-15.870000000000005" width="60" height="92.25" as="geometry"/>
                </mxCell>
                <mxCell id="248" value="&lt;font style=&quot;font-size: 8px;&quot; color=&quot;#ffffff&quot;&gt;&lt;span style=&quot;&quot;&gt;LLM&lt;/span&gt;&lt;br style=&quot;&quot;&gt;&lt;span style=&quot;&quot;&gt;FunctionCalling&lt;/span&gt;&lt;br&gt;&lt;/font&gt;" style="text;html=1;align=center;verticalAlign=middle;resizable=0;points=[];autosize=1;strokeColor=none;fillColor=none;fontSize=8;fontColor=default;" vertex="1" parent="243">
                    <mxGeometry x="86.99000000000001" y="13.25" width="73" height="31" as="geometry"/>
                </mxCell>
                <mxCell id="249" value="" style="rounded=1;whiteSpace=wrap;html=1;fillColor=none;strokeColor=#330066;dashed=1;" vertex="1" parent="1">
                    <mxGeometry x="-50" y="-249" width="310" height="322" as="geometry"/>
                </mxCell>
                <mxCell id="250" value="&lt;font color=&quot;#004c99&quot;&gt;&lt;b&gt;Meta Supervisor Node&lt;/b&gt;&lt;/font&gt;" style="text;html=1;strokeColor=none;fillColor=none;align=center;verticalAlign=middle;whiteSpace=wrap;rounded=0;dashed=1;" vertex="1" parent="1">
                    <mxGeometry x="44" y="-251" width="141" height="30" as="geometry"/>
                </mxCell>
                <mxCell id="251" value="" style="rounded=1;whiteSpace=wrap;html=1;dashed=1;strokeColor=#330066;fontColor=#004C99;fillColor=none;" vertex="1" parent="1">
                    <mxGeometry x="3" y="-211" width="233" height="140" as="geometry"/>
                </mxCell>
                <mxCell id="252" value="&lt;font style=&quot;&quot; color=&quot;#004c99&quot;&gt;&lt;span style=&quot;font-size: 10px;&quot;&gt;&lt;b&gt;Agent&lt;/b&gt;&lt;br&gt;(&lt;/span&gt;&lt;/font&gt;&lt;font color=&quot;#004c99&quot;&gt;&lt;span style=&quot;font-size: 10px;&quot;&gt;create_openai_functions_agent)&lt;/span&gt;&lt;/font&gt;" style="text;html=1;strokeColor=none;fillColor=none;align=center;verticalAlign=middle;whiteSpace=wrap;rounded=0;dashed=1;" vertex="1" parent="1">
                    <mxGeometry x="28.5" y="-204.88" width="141" height="30" as="geometry"/>
                </mxCell>
                <mxCell id="253" value="" style="endArrow=classic;html=1;fontColor=#004C99;fillColor=#d80073;strokeColor=#A50040;entryX=-0.01;entryY=0.129;entryDx=0;entryDy=0;entryPerimeter=0;" edge="1" parent="1" target="249">
                    <mxGeometry width="50" height="50" relative="1" as="geometry">
                        <mxPoint x="-189" y="-205" as="sourcePoint"/>
                        <mxPoint x="-149" y="-225" as="targetPoint"/>
                    </mxGeometry>
                </mxCell>
                <mxCell id="254" value="&lt;font style=&quot;&quot; color=&quot;#003366&quot;&gt;LLM&lt;/font&gt;" style="edgeLabel;html=1;align=center;verticalAlign=middle;resizable=0;points=[];fontColor=default;fontSize=12;rounded=0;dashed=1;labelBackgroundColor=none;" vertex="1" connectable="0" parent="253">
                    <mxGeometry x="-0.2737" y="1" relative="1" as="geometry">
                        <mxPoint x="6" y="-9" as="offset"/>
                    </mxGeometry>
                </mxCell>
                <mxCell id="255" value="" style="endArrow=classic;html=1;fontColor=#004C99;fillColor=#d80073;strokeColor=#A50040;entryX=0;entryY=0.25;entryDx=0;entryDy=0;" edge="1" parent="1" target="249">
                    <mxGeometry width="50" height="50" relative="1" as="geometry">
                        <mxPoint x="-186" y="-168" as="sourcePoint"/>
                        <mxPoint x="-151" y="-186" as="targetPoint"/>
                    </mxGeometry>
                </mxCell>
                <mxCell id="256" value="&lt;font style=&quot;&quot; color=&quot;#003366&quot;&gt;Prompt&lt;/font&gt;" style="edgeLabel;html=1;align=center;verticalAlign=middle;resizable=0;points=[];fontColor=default;fontSize=12;rounded=0;dashed=1;labelBackgroundColor=none;" vertex="1" connectable="0" parent="255">
                    <mxGeometry x="-0.2737" y="1" relative="1" as="geometry">
                        <mxPoint x="6" y="-9" as="offset"/>
                    </mxGeometry>
                </mxCell>
                <mxCell id="257" value="" style="endArrow=classic;html=1;fontColor=#004C99;fillColor=#d80073;strokeColor=#A50040;entryX=0.002;entryY=0.415;entryDx=0;entryDy=0;entryPerimeter=0;" edge="1" parent="1" target="249">
                    <mxGeometry width="50" height="50" relative="1" as="geometry">
                        <mxPoint x="-181" y="-115" as="sourcePoint"/>
                        <mxPoint x="-151" y="-138" as="targetPoint"/>
                    </mxGeometry>
                </mxCell>
                <mxCell id="258" value="&lt;font style=&quot;&quot; color=&quot;#003366&quot;&gt;members&lt;br&gt;&lt;font style=&quot;font-size: 8px;&quot;&gt;search and research&lt;/font&gt;&lt;br&gt;&lt;/font&gt;" style="edgeLabel;html=1;align=center;verticalAlign=middle;resizable=0;points=[];fontColor=default;fontSize=12;rounded=0;dashed=1;labelBackgroundColor=none;" vertex="1" connectable="0" parent="257">
                    <mxGeometry x="-0.2737" y="1" relative="1" as="geometry">
                        <mxPoint x="22" y="-3" as="offset"/>
                    </mxGeometry>
                </mxCell>
                <mxCell id="259" value="" style="endArrow=classic;html=1;fontColor=#004C99;entryX=0.5;entryY=0;entryDx=0;entryDy=0;exitX=0.5;exitY=1;exitDx=0;exitDy=0;fillColor=#d80073;strokeColor=#A50040;" edge="1" parent="1" source="251" target="262">
                    <mxGeometry width="50" height="50" relative="1" as="geometry">
                        <mxPoint x="303.0039999999999" y="-180.938" as="sourcePoint"/>
                        <mxPoint x="384.77" y="-181" as="targetPoint"/>
                    </mxGeometry>
                </mxCell>
                <mxCell id="260" value="&lt;font style=&quot;font-size: 8px;&quot; color=&quot;#003366&quot;&gt;AIMessage&lt;br&gt;tool_calls(Finish,search,retrieve)&lt;br&gt;&lt;/font&gt;" style="edgeLabel;html=1;align=center;verticalAlign=middle;resizable=0;points=[];fontColor=default;fontSize=12;rounded=0;dashed=1;labelBackgroundColor=none;" vertex="1" connectable="0" parent="259">
                    <mxGeometry x="-0.2737" y="1" relative="1" as="geometry">
                        <mxPoint x="40" y="15" as="offset"/>
                    </mxGeometry>
                </mxCell>
                <mxCell id="261" style="edgeStyle=none;html=1;strokeColor=#006600;fontSize=8;fontColor=#660066;" edge="1" parent="1" source="262" target="272">
                    <mxGeometry relative="1" as="geometry">
                        <mxPoint x="119.5" y="103" as="targetPoint"/>
                    </mxGeometry>
                </mxCell>
                <mxCell id="270" style="edgeStyle=none;html=1;entryX=0.5;entryY=0;entryDx=0;entryDy=0;strokeColor=#006600;fontSize=8;fontColor=#660066;" edge="1" parent="1" source="262" target="3">
                    <mxGeometry relative="1" as="geometry">
                        <Array as="points">
                            <mxPoint x="632" y="13"/>
                        </Array>
                    </mxGeometry>
                </mxCell>
                <mxCell id="271" style="edgeStyle=none;html=1;strokeColor=#006600;fontSize=8;fontColor=#660066;entryX=0.5;entryY=0;entryDx=0;entryDy=0;" edge="1" parent="1" source="262" target="187">
                    <mxGeometry relative="1" as="geometry">
                        <mxPoint x="-530.3335723876953" y="13" as="targetPoint"/>
                        <Array as="points">
                            <mxPoint x="-527" y="15"/>
                        </Array>
                    </mxGeometry>
                </mxCell>
                <mxCell id="262" value="Conditioanl Edge" style="rhombus;whiteSpace=wrap;html=1;dashed=1;labelBackgroundColor=none;strokeColor=#330066;fontSize=8;fontColor=#003366;fillColor=none;" vertex="1" parent="1">
                    <mxGeometry x="56" y="-39" width="127" height="104" as="geometry"/>
                </mxCell>
                <mxCell id="263" value="" style="group" vertex="1" connectable="0" parent="1">
                    <mxGeometry x="32" y="-152" width="177" height="60.25999999999999" as="geometry"/>
                </mxCell>
                <mxCell id="264" value="" style="verticalLabelPosition=bottom;verticalAlign=top;html=1;shape=mxgraph.infographic.cylinder;fillColor=#10739E;strokeColor=none;fontSize=8;rotation=90;" vertex="1" parent="263">
                    <mxGeometry x="58.5" y="-58.24" width="60" height="177" as="geometry"/>
                </mxCell>
                <mxCell id="265" value="" style="shape=cylinder3;whiteSpace=wrap;html=1;boundedLbl=1;backgroundOutline=1;size=10.352005004882812;lid=0;fontSize=8;rotation=90;fillColor=#660066;opacity=40;" vertex="1" parent="263">
                    <mxGeometry x="12.490000000000009" y="-10" width="60" height="80" as="geometry"/>
                </mxCell>
                <mxCell id="266" value="&lt;span style=&quot;&quot;&gt;&lt;font style=&quot;font-size: 8px;&quot; color=&quot;#ffffff&quot;&gt;Prompt&lt;br&gt;&lt;/font&gt;&lt;/span&gt;" style="text;html=1;align=center;verticalAlign=middle;resizable=0;points=[];autosize=1;strokeColor=none;fillColor=none;fontSize=8;fontColor=default;" vertex="1" parent="263">
                    <mxGeometry x="18.99000000000001" y="18.75" width="44" height="22" as="geometry"/>
                </mxCell>
                <mxCell id="267" value="" style="shape=cylinder3;whiteSpace=wrap;html=1;boundedLbl=1;backgroundOutline=1;size=10.352005004882812;lid=0;fontSize=8;rotation=90;fillColor=#660066;opacity=40;" vertex="1" parent="263">
                    <mxGeometry x="89.12" y="-15.870000000000005" width="60" height="92.25" as="geometry"/>
                </mxCell>
                <mxCell id="268" value="&lt;font style=&quot;font-size: 8px;&quot; color=&quot;#ffffff&quot;&gt;&lt;span style=&quot;&quot;&gt;LLM&lt;/span&gt;&lt;br style=&quot;&quot;&gt;&lt;span style=&quot;&quot;&gt;FunctionCalling&lt;/span&gt;&lt;br&gt;&lt;/font&gt;" style="text;html=1;align=center;verticalAlign=middle;resizable=0;points=[];autosize=1;strokeColor=none;fillColor=none;fontSize=8;fontColor=default;" vertex="1" parent="263">
                    <mxGeometry x="86.99000000000001" y="13.25" width="73" height="31" as="geometry"/>
                </mxCell>
                <mxCell id="272" value="Finish" style="rounded=0;whiteSpace=wrap;html=1;labelBackgroundColor=none;fontSize=8;fontColor=#660066;fillColor=#660066;opacity=40;" vertex="1" parent="1">
                    <mxGeometry x="60.5" y="128.12" width="120" height="60" as="geometry"/>
                </mxCell>
            </root>
        </mxGraphModel>
    </diagram>
</mxfile>